<svg width="145" height="92" viewBox="0 0 145 92" fill="none" xmlns="http://www.w3.org/2000/svg">
<rect width="3.07221" height="2.30227" rx="0.430476" transform="matrix(-1 -1.74846e-07 -1.74846e-07 1 20.4451 0.421021)" fill="#A6A6A6" fill-opacity="0.5"/>
<rect width="2.15055" height="0.460455" rx="0.230228" transform="matrix(-1 -1.74846e-07 -1.74846e-07 1 19.9843 2.87677)" fill="#A6A6A6" fill-opacity="0.5"/>
<rect width="3.07221" height="2.30227" rx="0.430476" transform="matrix(-1 -1.74846e-07 -1.74846e-07 1 26.1001 0.421021)" fill="#A6A6A6" fill-opacity="0.5"/>
<rect width="2.15055" height="0.460455" rx="0.230228" transform="matrix(-1 -1.74846e-07 -1.74846e-07 1 25.6393 2.87677)" fill="#A6A6A6" fill-opacity="0.5"/>
<rect width="3.07221" height="2.30227" rx="0.430476" transform="matrix(-1 -1.74846e-07 -1.74846e-07 1 37.4103 0.421021)" fill="#61C3F2"/>
<rect width="2.15055" height="0.460455" rx="0.230228" transform="matrix(-1 -1.74846e-07 -1.74846e-07 1 36.9495 2.87677)" fill="#61C3F2"/>
<rect width="3.07221" height="2.30227" rx="0.430476" transform="matrix(-1 -1.74846e-07 -1.74846e-07 1 43.0653 0.421021)" fill="#61C3F2"/>
<rect width="2.15055" height="0.460455" rx="0.230228" transform="matrix(-1 -1.74846e-07 -1.74846e-07 1 42.6045 2.87677)" fill="#61C3F2"/>
<rect width="3.07221" height="2.30227" rx="0.430476" transform="matrix(-1 -1.74846e-07 -1.74846e-07 1 48.7205 0.421021)" fill="#A6A6A6" fill-opacity="0.5"/>
<rect width="2.15055" height="0.460455" rx="0.230228" transform="matrix(-1 -1.74846e-07 -1.74846e-07 1 48.2596 2.87677)" fill="#A6A6A6" fill-opacity="0.5"/>
<rect width="3.07221" height="2.30227" rx="0.430476" transform="matrix(-1 -1.74846e-07 -1.74846e-07 1 54.3755 0.421021)" fill="#A6A6A6" fill-opacity="0.5"/>
<rect width="2.15055" height="0.460455" rx="0.230228" transform="matrix(-1 -1.74846e-07 -1.74846e-07 1 53.9147 2.87677)" fill="#A6A6A6" fill-opacity="0.5"/>
<rect width="3.07221" height="2.30227" rx="0.430476" transform="matrix(-1 -1.74846e-07 -1.74846e-07 1 60.0305 0.421021)" fill="#61C3F2"/>
<rect width="2.15055" height="0.460455" rx="0.230228" transform="matrix(-1 -1.74846e-07 -1.74846e-07 1 59.5697 2.87677)" fill="#61C3F2"/>
<rect width="3.07221" height="2.30227" rx="0.430476" transform="matrix(-1 -1.74846e-07 -1.74846e-07 1 65.6857 0.421021)" fill="#61C3F2"/>
<rect width="2.15055" height="0.460455" rx="0.230228" transform="matrix(-1 -1.74846e-07 -1.74846e-07 1 65.2249 2.87677)" fill="#61C3F2"/>
<rect width="3.07221" height="2.30227" rx="0.430476" transform="matrix(-1 -1.74846e-07 -1.74846e-07 1 71.3407 0.421021)" fill="#A6A6A6" fill-opacity="0.5"/>
<rect width="2.15055" height="0.460455" rx="0.230228" transform="matrix(-1 -1.74846e-07 -1.74846e-07 1 70.8799 2.87677)" fill="#A6A6A6" fill-opacity="0.5"/>
<rect width="3.07221" height="2.30227" rx="0.430476" transform="matrix(-1 -1.74846e-07 -1.74846e-07 1 76.9957 0.421021)" fill="#A6A6A6" fill-opacity="0.5"/>
<rect width="2.15055" height="0.460455" rx="0.230228" transform="matrix(-1 -1.74846e-07 -1.74846e-07 1 76.5349 2.87677)" fill="#A6A6A6" fill-opacity="0.5"/>
<rect width="3.07221" height="2.30227" rx="0.430476" transform="matrix(-1 -1.74846e-07 -1.74846e-07 1 82.6509 0.421021)" fill="#61C3F2"/>
<rect width="2.15055" height="0.460455" rx="0.230228" transform="matrix(-1 -1.74846e-07 -1.74846e-07 1 82.1901 2.87677)" fill="#61C3F2"/>
<rect width="3.07221" height="2.30227" rx="0.430476" transform="matrix(-1 -1.74846e-07 -1.74846e-07 1 88.3059 0.421021)" fill="#61C3F2"/>
<rect width="2.15055" height="0.460455" rx="0.230228" transform="matrix(-1 -1.74846e-07 -1.74846e-07 1 87.8451 2.87677)" fill="#61C3F2"/>
<rect width="3.07221" height="2.30227" rx="0.430476" transform="matrix(-1 -1.74846e-07 -1.74846e-07 1 93.9609 0.421021)" fill="#A6A6A6" fill-opacity="0.5"/>
<rect width="2.15055" height="0.460455" rx="0.230228" transform="matrix(-1 -1.74846e-07 -1.74846e-07 1 93.5001 2.87677)" fill="#A6A6A6" fill-opacity="0.5"/>
<rect width="3.07221" height="2.30227" rx="0.430476" transform="matrix(-1 -1.74846e-07 -1.74846e-07 1 99.6161 0.421021)" fill="#A6A6A6" fill-opacity="0.5"/>
<rect width="2.15055" height="0.460455" rx="0.230228" transform="matrix(-1 -1.74846e-07 -1.74846e-07 1 99.1552 2.87677)" fill="#A6A6A6" fill-opacity="0.5"/>
<rect width="3.07221" height="2.30227" rx="0.430476" transform="matrix(-1 -1.74846e-07 -1.74846e-07 1 105.271 0.421021)" fill="#61C3F2"/>
<rect width="2.15055" height="0.460455" rx="0.230228" transform="matrix(-1 -1.74846e-07 -1.74846e-07 1 104.81 2.87677)" fill="#61C3F2"/>
<rect width="3.07221" height="2.30227" rx="0.430476" transform="matrix(-1 -1.74846e-07 -1.74846e-07 1 110.926 0.421021)" fill="#61C3F2"/>
<rect width="2.15055" height="0.460455" rx="0.230228" transform="matrix(-1 -1.74846e-07 -1.74846e-07 1 110.465 2.87677)" fill="#61C3F2"/>
<rect width="3.07221" height="2.30227" rx="0.430476" transform="matrix(-1 -1.74846e-07 -1.74846e-07 1 122.236 0.421021)" fill="#A6A6A6" fill-opacity="0.5"/>
<rect width="2.15055" height="0.460455" rx="0.230228" transform="matrix(-1 -1.74846e-07 -1.74846e-07 1 121.776 2.87677)" fill="#A6A6A6" fill-opacity="0.5"/>
<rect width="3.07221" height="2.30227" rx="0.430476" transform="matrix(-1 -1.74846e-07 -1.74846e-07 1 127.891 0.421021)" fill="#A6A6A6" fill-opacity="0.5"/>
<rect width="2.15055" height="0.460455" rx="0.230228" transform="matrix(-1 -1.74846e-07 -1.74846e-07 1 127.431 2.87677)" fill="#A6A6A6" fill-opacity="0.5"/>
<rect width="3.07221" height="2.30227" rx="0.430476" transform="matrix(-1 -1.74846e-07 -1.74846e-07 1 9.13489 7.21152)" fill="#61C3F2"/>
<rect width="2.15055" height="0.460455" rx="0.230228" transform="matrix(-1 -1.74846e-07 -1.74846e-07 1 8.67407 9.66727)" fill="#61C3F2"/>
<rect width="3.07221" height="2.30227" rx="0.430476" transform="matrix(-1 -1.74846e-07 -1.74846e-07 1 14.79 7.21152)" fill="#A6A6A6" fill-opacity="0.5"/>
<rect width="2.15055" height="0.460455" rx="0.230228" transform="matrix(-1 -1.74846e-07 -1.74846e-07 1 14.3292 9.66727)" fill="#A6A6A6" fill-opacity="0.5"/>
<rect width="3.07221" height="2.30227" rx="0.430476" transform="matrix(-1 -1.74846e-07 -1.74846e-07 1 20.4451 7.21152)" fill="#61C3F2"/>
<rect width="2.15055" height="0.460455" rx="0.230228" transform="matrix(-1 -1.74846e-07 -1.74846e-07 1 19.9843 9.66727)" fill="#61C3F2"/>
<rect width="3.07221" height="2.30227" rx="0.430476" transform="matrix(-1 -1.74846e-07 -1.74846e-07 1 26.1001 7.21152)" fill="#A6A6A6" fill-opacity="0.5"/>
<rect width="2.15055" height="0.460455" rx="0.230228" transform="matrix(-1 -1.74846e-07 -1.74846e-07 1 25.6393 9.66727)" fill="#A6A6A6" fill-opacity="0.5"/>
<rect width="3.07221" height="2.30227" rx="0.430476" transform="matrix(-1 -1.74846e-07 -1.74846e-07 1 37.4103 7.21152)" fill="#A6A6A6" fill-opacity="0.5"/>
<rect width="2.15055" height="0.460455" rx="0.230228" transform="matrix(-1 -1.74846e-07 -1.74846e-07 1 36.9495 9.6673)" fill="#A6A6A6" fill-opacity="0.5"/>
<rect width="3.07221" height="2.30227" rx="0.430476" transform="matrix(-1 -1.74846e-07 -1.74846e-07 1 43.0653 7.21152)" fill="#A6A6A6" fill-opacity="0.5"/>
<rect width="2.15055" height="0.460455" rx="0.230228" transform="matrix(-1 -1.74846e-07 -1.74846e-07 1 42.6045 9.6673)" fill="#A6A6A6" fill-opacity="0.5"/>
<rect width="3.07221" height="2.30227" rx="0.430476" transform="matrix(-1 -1.74846e-07 -1.74846e-07 1 48.7205 7.21152)" fill="#61C3F2"/>
<rect width="2.15055" height="0.460455" rx="0.230228" transform="matrix(-1 -1.74846e-07 -1.74846e-07 1 48.2596 9.6673)" fill="#61C3F2"/>
<rect width="3.07221" height="2.30227" rx="0.430476" transform="matrix(-1 -1.74846e-07 -1.74846e-07 1 54.3755 7.21152)" fill="#61C3F2"/>
<rect width="2.15055" height="0.460455" rx="0.230228" transform="matrix(-1 -1.74846e-07 -1.74846e-07 1 53.9147 9.6673)" fill="#61C3F2"/>
<rect width="3.07221" height="2.30227" rx="0.430476" transform="matrix(-1 -1.74846e-07 -1.74846e-07 1 60.0305 7.21152)" fill="#A6A6A6" fill-opacity="0.5"/>
<rect width="2.15055" height="0.460455" rx="0.230228" transform="matrix(-1 -1.74846e-07 -1.74846e-07 1 59.5697 9.6673)" fill="#A6A6A6" fill-opacity="0.5"/>
<rect width="3.07221" height="2.30227" rx="0.430476" transform="matrix(-1 -1.74846e-07 -1.74846e-07 1 65.6857 7.21152)" fill="#A6A6A6" fill-opacity="0.5"/>
<rect width="2.15055" height="0.460455" rx="0.230228" transform="matrix(-1 -1.74846e-07 -1.74846e-07 1 65.2249 9.6673)" fill="#A6A6A6" fill-opacity="0.5"/>
<rect width="3.07221" height="2.30227" rx="0.430476" transform="matrix(-1 -1.74846e-07 -1.74846e-07 1 71.3407 7.21152)" fill="#61C3F2"/>
<rect width="2.15055" height="0.460455" rx="0.230228" transform="matrix(-1 -1.74846e-07 -1.74846e-07 1 70.8799 9.6673)" fill="#61C3F2"/>
<rect width="3.07221" height="2.30227" rx="0.430476" transform="matrix(-1 -1.74846e-07 -1.74846e-07 1 76.9957 7.21152)" fill="#61C3F2"/>
<rect width="2.15055" height="0.460455" rx="0.230228" transform="matrix(-1 -1.74846e-07 -1.74846e-07 1 76.5349 9.6673)" fill="#61C3F2"/>
<rect width="3.07221" height="2.30227" rx="0.430476" transform="matrix(-1 -1.74846e-07 -1.74846e-07 1 82.6509 7.21152)" fill="#A6A6A6" fill-opacity="0.5"/>
<rect width="2.15055" height="0.460455" rx="0.230228" transform="matrix(-1 -1.74846e-07 -1.74846e-07 1 82.1901 9.6673)" fill="#A6A6A6" fill-opacity="0.5"/>
<rect width="3.07221" height="2.30227" rx="0.430476" transform="matrix(-1 -1.74846e-07 -1.74846e-07 1 88.3059 7.21152)" fill="#A6A6A6" fill-opacity="0.5"/>
<rect width="2.15055" height="0.460455" rx="0.230228" transform="matrix(-1 -1.74846e-07 -1.74846e-07 1 87.8451 9.6673)" fill="#A6A6A6" fill-opacity="0.5"/>
<rect width="3.07221" height="2.30227" rx="0.430476" transform="matrix(-1 -1.74846e-07 -1.74846e-07 1 93.9609 7.21152)" fill="#61C3F2"/>
<rect width="2.15055" height="0.460455" rx="0.230228" transform="matrix(-1 -1.74846e-07 -1.74846e-07 1 93.5001 9.6673)" fill="#61C3F2"/>
<rect width="3.07221" height="2.30227" rx="0.430476" transform="matrix(-1 -1.74846e-07 -1.74846e-07 1 99.6161 7.21152)" fill="#61C3F2"/>
<rect width="2.15055" height="0.460455" rx="0.230228" transform="matrix(-1 -1.74846e-07 -1.74846e-07 1 99.1552 9.6673)" fill="#61C3F2"/>
<rect width="3.07221" height="2.30227" rx="0.430476" transform="matrix(-1 -1.74846e-07 -1.74846e-07 1 105.271 7.21152)" fill="#A6A6A6" fill-opacity="0.5"/>
<rect width="2.15055" height="0.460455" rx="0.230228" transform="matrix(-1 -1.74846e-07 -1.74846e-07 1 104.81 9.6673)" fill="#A6A6A6" fill-opacity="0.5"/>
<rect width="3.07221" height="2.30227" rx="0.430476" transform="matrix(-1 -1.74846e-07 -1.74846e-07 1 110.926 7.21152)" fill="#A6A6A6" fill-opacity="0.5"/>
<rect width="2.15055" height="0.460455" rx="0.230228" transform="matrix(-1 -1.74846e-07 -1.74846e-07 1 110.465 9.6673)" fill="#A6A6A6" fill-opacity="0.5"/>
<rect width="3.07221" height="2.30227" rx="0.430476" transform="matrix(-1 -1.74846e-07 -1.74846e-07 1 122.236 7.21155)" fill="#A6A6A6" fill-opacity="0.5"/>
<rect width="2.15055" height="0.460455" rx="0.230228" transform="matrix(-1 -1.74846e-07 -1.74846e-07 1 121.776 9.6673)" fill="#A6A6A6" fill-opacity="0.5"/>
<rect width="3.07221" height="2.30227" rx="0.430476" transform="matrix(-1 -1.74846e-07 -1.74846e-07 1 127.891 7.21155)" fill="#61C3F2"/>
<rect width="2.15055" height="0.460455" rx="0.230228" transform="matrix(-1 -1.74846e-07 -1.74846e-07 1 127.431 9.6673)" fill="#61C3F2"/>
<rect width="3.07221" height="2.30227" rx="0.430476" transform="matrix(-1 -1.74846e-07 -1.74846e-07 1 133.546 7.21155)" fill="#A6A6A6" fill-opacity="0.5"/>
<rect width="2.15055" height="0.460455" rx="0.230228" transform="matrix(-1 -1.74846e-07 -1.74846e-07 1 133.086 9.6673)" fill="#A6A6A6" fill-opacity="0.5"/>
<rect width="3.07221" height="2.30227" rx="0.430476" transform="matrix(-1 -1.74846e-07 -1.74846e-07 1 139.202 7.21155)" fill="#61C3F2"/>
<rect width="2.15055" height="0.460455" rx="0.230228" transform="matrix(-1 -1.74846e-07 -1.74846e-07 1 138.741 9.6673)" fill="#61C3F2"/>
<rect width="3.07221" height="2.30227" rx="0.430476" transform="matrix(-1 -1.74846e-07 -1.74846e-07 1 9.13489 14.002)" fill="#A6A6A6" fill-opacity="0.5"/>
<rect width="2.15055" height="0.460455" rx="0.230228" transform="matrix(-1 -1.74846e-07 -1.74846e-07 1 8.67407 16.4578)" fill="#A6A6A6" fill-opacity="0.5"/>
<rect width="3.07221" height="2.30227" rx="0.430476" transform="matrix(-1 -1.74846e-07 -1.74846e-07 1 14.79 14.002)" fill="#61C3F2"/>
<rect width="2.15055" height="0.460455" rx="0.230228" transform="matrix(-1 -1.74846e-07 -1.74846e-07 1 14.3292 16.4578)" fill="#61C3F2"/>
<rect width="3.07221" height="2.30227" rx="0.430476" transform="matrix(-1 -1.74846e-07 -1.74846e-07 1 20.4451 14.002)" fill="#A6A6A6" fill-opacity="0.5"/>
<rect width="2.15055" height="0.460455" rx="0.230228" transform="matrix(-1 -1.74846e-07 -1.74846e-07 1 19.9843 16.4578)" fill="#A6A6A6" fill-opacity="0.5"/>
<rect width="3.07221" height="2.30227" rx="0.430476" transform="matrix(-1 -1.74846e-07 -1.74846e-07 1 26.1001 14.002)" fill="#A6A6A6" fill-opacity="0.5"/>
<rect width="2.15055" height="0.460455" rx="0.230228" transform="matrix(-1 -1.74846e-07 -1.74846e-07 1 25.6393 16.4578)" fill="#A6A6A6" fill-opacity="0.5"/>
<rect width="3.07221" height="2.30227" rx="0.430476" transform="matrix(-1 -1.74846e-07 -1.74846e-07 1 37.4103 14.002)" fill="#15D2BC"/>
<rect width="2.15055" height="0.460455" rx="0.230228" transform="matrix(-1 -1.74846e-07 -1.74846e-07 1 36.9495 16.4578)" fill="#15D2BC"/>
<rect width="3.07221" height="2.30227" rx="0.430476" transform="matrix(-1 -1.74846e-07 -1.74846e-07 1 43.0653 14.002)" fill="#15D2BC"/>
<rect width="2.15055" height="0.460455" rx="0.230228" transform="matrix(-1 -1.74846e-07 -1.74846e-07 1 42.6045 16.4578)" fill="#15D2BC"/>
<rect width="3.07221" height="2.30227" rx="0.430476" transform="matrix(-1 -1.74846e-07 -1.74846e-07 1 48.7205 14.002)" fill="#A6A6A6" fill-opacity="0.5"/>
<rect width="2.15055" height="0.460455" rx="0.230228" transform="matrix(-1 -1.74846e-07 -1.74846e-07 1 48.2596 16.4578)" fill="#A6A6A6" fill-opacity="0.5"/>
<rect width="3.07221" height="2.30227" rx="0.430476" transform="matrix(-1 -1.74846e-07 -1.74846e-07 1 54.3755 14.002)" fill="#A6A6A6" fill-opacity="0.5"/>
<rect width="2.15055" height="0.460455" rx="0.230228" transform="matrix(-1 -1.74846e-07 -1.74846e-07 1 53.9147 16.4578)" fill="#A6A6A6" fill-opacity="0.5"/>
<rect width="3.07221" height="2.30227" rx="0.430476" transform="matrix(-1 -1.74846e-07 -1.74846e-07 1 60.0305 14.002)" fill="#61C3F2"/>
<rect width="2.15055" height="0.460455" rx="0.230228" transform="matrix(-1 -1.74846e-07 -1.74846e-07 1 59.5697 16.4578)" fill="#61C3F2"/>
<rect width="3.07221" height="2.30227" rx="0.430476" transform="matrix(-1 -1.74846e-07 -1.74846e-07 1 65.6857 14.002)" fill="#61C3F2"/>
<rect width="2.15055" height="0.460455" rx="0.230228" transform="matrix(-1 -1.74846e-07 -1.74846e-07 1 65.2249 16.4578)" fill="#61C3F2"/>
<rect width="3.07221" height="2.30227" rx="0.430476" transform="matrix(-1 -1.74846e-07 -1.74846e-07 1 71.3407 14.002)" fill="#A6A6A6" fill-opacity="0.5"/>
<rect width="2.15055" height="0.460455" rx="0.230228" transform="matrix(-1 -1.74846e-07 -1.74846e-07 1 70.8799 16.4578)" fill="#A6A6A6" fill-opacity="0.5"/>
<rect width="3.07221" height="2.30227" rx="0.430476" transform="matrix(-1 -1.74846e-07 -1.74846e-07 1 76.9957 14.002)" fill="#A6A6A6" fill-opacity="0.5"/>
<rect width="2.15055" height="0.460455" rx="0.230228" transform="matrix(-1 -1.74846e-07 -1.74846e-07 1 76.5349 16.4578)" fill="#A6A6A6" fill-opacity="0.5"/>
<rect width="3.07221" height="2.30227" rx="0.430476" transform="matrix(-1 -1.74846e-07 -1.74846e-07 1 82.6509 14.002)" fill="#61C3F2"/>
<rect width="2.15055" height="0.460455" rx="0.230228" transform="matrix(-1 -1.74846e-07 -1.74846e-07 1 82.1901 16.4578)" fill="#61C3F2"/>
<rect width="3.07221" height="2.30227" rx="0.430476" transform="matrix(-1 -1.74846e-07 -1.74846e-07 1 88.3059 14.002)" fill="#61C3F2"/>
<rect width="2.15055" height="0.460455" rx="0.230228" transform="matrix(-1 -1.74846e-07 -1.74846e-07 1 87.8451 16.4578)" fill="#61C3F2"/>
<rect width="3.07221" height="2.30227" rx="0.430476" transform="matrix(-1 -1.74846e-07 -1.74846e-07 1 93.9609 14.002)" fill="#A6A6A6" fill-opacity="0.5"/>
<rect width="2.15055" height="0.460455" rx="0.230228" transform="matrix(-1 -1.74846e-07 -1.74846e-07 1 93.5001 16.4578)" fill="#A6A6A6" fill-opacity="0.5"/>
<rect width="3.07221" height="2.30227" rx="0.430476" transform="matrix(-1 -1.74846e-07 -1.74846e-07 1 99.6161 14.002)" fill="#A6A6A6" fill-opacity="0.5"/>
<rect width="2.15055" height="0.460455" rx="0.230228" transform="matrix(-1 -1.74846e-07 -1.74846e-07 1 99.1552 16.4578)" fill="#A6A6A6" fill-opacity="0.5"/>
<rect width="3.07221" height="2.30227" rx="0.430476" transform="matrix(-1 -1.74846e-07 -1.74846e-07 1 105.271 14.002)" fill="#15D2BC"/>
<rect width="2.15055" height="0.460455" rx="0.230228" transform="matrix(-1 -1.74846e-07 -1.74846e-07 1 104.81 16.4578)" fill="#15D2BC"/>
<rect width="3.07221" height="2.30227" rx="0.430476" transform="matrix(-1 -1.74846e-07 -1.74846e-07 1 110.926 14.002)" fill="#15D2BC"/>
<rect width="2.15055" height="0.460455" rx="0.230228" transform="matrix(-1 -1.74846e-07 -1.74846e-07 1 110.465 16.4578)" fill="#15D2BC"/>
<rect width="3.07221" height="2.30227" rx="0.430476" transform="matrix(-1 -1.74846e-07 -1.74846e-07 1 122.236 14.002)" fill="#A6A6A6" fill-opacity="0.5"/>
<rect width="2.15055" height="0.460455" rx="0.230228" transform="matrix(-1 -1.74846e-07 -1.74846e-07 1 121.776 16.4578)" fill="#A6A6A6" fill-opacity="0.5"/>
<rect width="3.07221" height="2.30227" rx="0.430476" transform="matrix(-1 -1.74846e-07 -1.74846e-07 1 127.891 14.002)" fill="#A6A6A6" fill-opacity="0.5"/>
<rect width="2.15055" height="0.460455" rx="0.230228" transform="matrix(-1 -1.74846e-07 -1.74846e-07 1 127.431 16.4578)" fill="#A6A6A6" fill-opacity="0.5"/>
<rect width="3.07221" height="2.30227" rx="0.430476" transform="matrix(-1 -1.74846e-07 -1.74846e-07 1 133.546 14.002)" fill="#61C3F2"/>
<rect width="2.15055" height="0.460455" rx="0.230228" transform="matrix(-1 -1.74846e-07 -1.74846e-07 1 133.086 16.4578)" fill="#61C3F2"/>
<rect width="3.07221" height="2.30227" rx="0.430476" transform="matrix(-1 -1.74846e-07 -1.74846e-07 1 139.202 14.002)" fill="#A6A6A6" fill-opacity="0.5"/>
<rect width="2.15055" height="0.460455" rx="0.230228" transform="matrix(-1 -1.74846e-07 -1.74846e-07 1 138.741 16.4578)" fill="#A6A6A6" fill-opacity="0.5"/>
<rect width="3.07221" height="2.30227" rx="0.430476" transform="matrix(-1 -1.74846e-07 -1.74846e-07 1 9.13489 20.7925)" fill="#A6A6A6" fill-opacity="0.5"/>
<rect width="2.15055" height="0.460455" rx="0.230228" transform="matrix(-1 -1.74846e-07 -1.74846e-07 1 8.67407 23.2483)" fill="#A6A6A6" fill-opacity="0.5"/>
<rect width="3.07221" height="2.30227" rx="0.430476" transform="matrix(-1 -1.74846e-07 -1.74846e-07 1 14.79 20.7925)" fill="#A6A6A6" fill-opacity="0.5"/>
<rect width="2.15055" height="0.460455" rx="0.230228" transform="matrix(-1 -1.74846e-07 -1.74846e-07 1 14.3292 23.2483)" fill="#A6A6A6" fill-opacity="0.5"/>
<rect width="3.07221" height="2.30227" rx="0.430476" transform="matrix(-1 -1.74846e-07 -1.74846e-07 1 20.4451 20.7925)" fill="#61C3F2"/>
<rect width="2.15055" height="0.460455" rx="0.230228" transform="matrix(-1 -1.74846e-07 -1.74846e-07 1 19.9843 23.2483)" fill="#61C3F2"/>
<rect width="3.07221" height="2.30227" rx="0.430476" transform="matrix(-1 -1.74846e-07 -1.74846e-07 1 26.1001 20.7925)" fill="#A6A6A6" fill-opacity="0.5"/>
<rect width="2.15055" height="0.460455" rx="0.230228" transform="matrix(-1 -1.74846e-07 -1.74846e-07 1 25.6393 23.2483)" fill="#A6A6A6" fill-opacity="0.5"/>
<rect width="3.07221" height="2.30227" rx="0.430476" transform="matrix(-1 -1.74846e-07 -1.74846e-07 1 37.4103 20.7925)" fill="#A6A6A6" fill-opacity="0.5"/>
<rect width="2.15055" height="0.460455" rx="0.230228" transform="matrix(-1 -1.74846e-07 -1.74846e-07 1 36.9495 23.2483)" fill="#A6A6A6" fill-opacity="0.5"/>
<rect width="3.07221" height="2.30227" rx="0.430476" transform="matrix(-1 -1.74846e-07 -1.74846e-07 1 43.0653 20.7925)" fill="#A6A6A6" fill-opacity="0.5"/>
<rect width="2.15055" height="0.460455" rx="0.230228" transform="matrix(-1 -1.74846e-07 -1.74846e-07 1 42.6045 23.2483)" fill="#A6A6A6" fill-opacity="0.5"/>
<rect width="3.07221" height="2.30227" rx="0.430476" transform="matrix(-1 -1.74846e-07 -1.74846e-07 1 48.7205 20.7925)" fill="#61C3F2"/>
<rect width="2.15055" height="0.460455" rx="0.230228" transform="matrix(-1 -1.74846e-07 -1.74846e-07 1 48.2596 23.2483)" fill="#61C3F2"/>
<rect width="3.07221" height="2.30227" rx="0.430476" transform="matrix(-1 -1.74846e-07 -1.74846e-07 1 54.3755 20.7925)" fill="#61C3F2"/>
<rect width="2.15055" height="0.460455" rx="0.230228" transform="matrix(-1 -1.74846e-07 -1.74846e-07 1 53.9147 23.2483)" fill="#61C3F2"/>
<rect width="3.07221" height="2.30227" rx="0.430476" transform="matrix(-1 -1.74846e-07 -1.74846e-07 1 60.0305 20.7925)" fill="#A6A6A6" fill-opacity="0.5"/>
<rect width="2.15055" height="0.460455" rx="0.230228" transform="matrix(-1 -1.74846e-07 -1.74846e-07 1 59.5697 23.2483)" fill="#A6A6A6" fill-opacity="0.5"/>
<rect width="3.07221" height="2.30227" rx="0.430476" transform="matrix(-1 -1.74846e-07 -1.74846e-07 1 65.6857 20.7925)" fill="#A6A6A6" fill-opacity="0.5"/>
<rect width="2.15055" height="0.460455" rx="0.230228" transform="matrix(-1 -1.74846e-07 -1.74846e-07 1 65.2249 23.2483)" fill="#A6A6A6" fill-opacity="0.5"/>
<rect width="3.07221" height="2.30227" rx="0.430476" transform="matrix(-1 -1.74846e-07 -1.74846e-07 1 71.3407 20.7925)" fill="#61C3F2"/>
<rect width="2.15055" height="0.460455" rx="0.230228" transform="matrix(-1 -1.74846e-07 -1.74846e-07 1 70.8799 23.2483)" fill="#61C3F2"/>
<rect width="3.07221" height="2.30227" rx="0.430476" transform="matrix(-1 -1.74846e-07 -1.74846e-07 1 76.9957 20.7925)" fill="#61C3F2"/>
<rect width="2.15055" height="0.460455" rx="0.230228" transform="matrix(-1 -1.74846e-07 -1.74846e-07 1 76.5349 23.2483)" fill="#61C3F2"/>
<rect width="3.07221" height="2.30227" rx="0.430476" transform="matrix(-1 -1.74846e-07 -1.74846e-07 1 82.6509 20.7925)" fill="#A6A6A6" fill-opacity="0.5"/>
<rect width="2.15055" height="0.460455" rx="0.230228" transform="matrix(-1 -1.74846e-07 -1.74846e-07 1 82.1901 23.2483)" fill="#A6A6A6" fill-opacity="0.5"/>
<rect width="3.07221" height="2.30227" rx="0.430476" transform="matrix(-1 -1.74846e-07 -1.74846e-07 1 88.3059 20.7925)" fill="#A6A6A6" fill-opacity="0.5"/>
<rect width="2.15055" height="0.460455" rx="0.230228" transform="matrix(-1 -1.74846e-07 -1.74846e-07 1 87.8451 23.2483)" fill="#A6A6A6" fill-opacity="0.5"/>
<rect width="3.07221" height="2.30227" rx="0.430476" transform="matrix(-1 -1.74846e-07 -1.74846e-07 1 93.9609 20.7925)" fill="#61C3F2"/>
<rect width="2.15055" height="0.460455" rx="0.230228" transform="matrix(-1 -1.74846e-07 -1.74846e-07 1 93.5001 23.2483)" fill="#61C3F2"/>
<rect width="3.07221" height="2.30227" rx="0.430476" transform="matrix(-1 -1.74846e-07 -1.74846e-07 1 99.6161 20.7925)" fill="#61C3F2"/>
<rect width="2.15055" height="0.460455" rx="0.230228" transform="matrix(-1 -1.74846e-07 -1.74846e-07 1 99.1552 23.2483)" fill="#61C3F2"/>
<rect width="3.07221" height="2.30227" rx="0.430476" transform="matrix(-1 -1.74846e-07 -1.74846e-07 1 105.271 20.7925)" fill="#A6A6A6" fill-opacity="0.5"/>
<rect width="2.15055" height="0.460455" rx="0.230228" transform="matrix(-1 -1.74846e-07 -1.74846e-07 1 104.81 23.2483)" fill="#A6A6A6" fill-opacity="0.5"/>
<rect width="3.07221" height="2.30227" rx="0.430476" transform="matrix(-1 -1.74846e-07 -1.74846e-07 1 110.926 20.7925)" fill="#A6A6A6" fill-opacity="0.5"/>
<rect width="2.15055" height="0.460455" rx="0.230228" transform="matrix(-1 -1.74846e-07 -1.74846e-07 1 110.465 23.2483)" fill="#A6A6A6" fill-opacity="0.5"/>
<rect width="3.07221" height="2.30227" rx="0.430476" transform="matrix(-1 -1.74846e-07 -1.74846e-07 1 122.236 20.7925)" fill="#A6A6A6" fill-opacity="0.5"/>
<rect width="2.15055" height="0.460455" rx="0.230228" transform="matrix(-1 -1.74846e-07 -1.74846e-07 1 121.776 23.2483)" fill="#A6A6A6" fill-opacity="0.5"/>
<rect width="3.07221" height="2.30227" rx="0.430476" transform="matrix(-1 -1.74846e-07 -1.74846e-07 1 127.891 20.7925)" fill="#61C3F2"/>
<rect width="2.15055" height="0.460455" rx="0.230228" transform="matrix(-1 -1.74846e-07 -1.74846e-07 1 127.431 23.2483)" fill="#61C3F2"/>
<rect width="3.07221" height="2.30227" rx="0.430476" transform="matrix(-1 -1.74846e-07 -1.74846e-07 1 133.546 20.7925)" fill="#A6A6A6" fill-opacity="0.5"/>
<rect width="2.15055" height="0.460455" rx="0.230228" transform="matrix(-1 -1.74846e-07 -1.74846e-07 1 133.086 23.2483)" fill="#A6A6A6" fill-opacity="0.5"/>
<rect width="3.07221" height="2.30227" rx="0.430476" transform="matrix(-1 -1.74846e-07 -1.74846e-07 1 139.202 20.7925)" fill="#A6A6A6" fill-opacity="0.5"/>
<rect width="2.15055" height="0.460455" rx="0.230228" transform="matrix(-1 -1.74846e-07 -1.74846e-07 1 138.741 23.2483)" fill="#A6A6A6" fill-opacity="0.5"/>
<rect width="3.07221" height="2.30227" rx="0.430476" transform="matrix(-1 -1.74846e-07 -1.74846e-07 1 3.47986 27.583)" fill="#61C3F2"/>
<rect width="2.15055" height="0.460455" rx="0.230228" transform="matrix(-1 -1.74846e-07 -1.74846e-07 1 3.01904 30.0388)" fill="#61C3F2"/>
<rect width="3.07221" height="2.30227" rx="0.430476" transform="matrix(-1 -1.74846e-07 -1.74846e-07 1 9.13489 27.583)" fill="#61C3F2"/>
<rect width="2.15055" height="0.460455" rx="0.230228" transform="matrix(-1 -1.74846e-07 -1.74846e-07 1 8.67407 30.0388)" fill="#61C3F2"/>
<rect width="3.07221" height="2.30227" rx="0.430476" transform="matrix(-1 -1.74846e-07 -1.74846e-07 1 14.79 27.583)" fill="#A6A6A6" fill-opacity="0.5"/>
<rect width="2.15055" height="0.460455" rx="0.230228" transform="matrix(-1 -1.74846e-07 -1.74846e-07 1 14.3292 30.0388)" fill="#A6A6A6" fill-opacity="0.5"/>
<rect width="3.07221" height="2.30227" rx="0.430476" transform="matrix(-1 -1.74846e-07 -1.74846e-07 1 20.4451 27.583)" fill="#A6A6A6" fill-opacity="0.5"/>
<rect width="2.15055" height="0.460455" rx="0.230228" transform="matrix(-1 -1.74846e-07 -1.74846e-07 1 19.9843 30.0388)" fill="#A6A6A6" fill-opacity="0.5"/>
<rect width="3.07221" height="2.30227" rx="0.430476" transform="matrix(-1 -1.74846e-07 -1.74846e-07 1 26.1001 27.583)" fill="#A6A6A6" fill-opacity="0.5"/>
<rect width="2.15055" height="0.460455" rx="0.230228" transform="matrix(-1 -1.74846e-07 -1.74846e-07 1 25.6393 30.0388)" fill="#A6A6A6" fill-opacity="0.5"/>
<rect width="3.07221" height="2.30227" rx="0.430476" transform="matrix(-1 -1.74846e-07 -1.74846e-07 1 37.4103 27.583)" fill="#E26CA5"/>
<rect width="2.15055" height="0.460455" rx="0.230228" transform="matrix(-1 -1.74846e-07 -1.74846e-07 1 36.9495 30.0388)" fill="#E26CA5"/>
<rect width="3.07221" height="2.30227" rx="0.430476" transform="matrix(-1 -1.74846e-07 -1.74846e-07 1 43.0653 27.583)" fill="#E26CA5"/>
<rect width="2.15055" height="0.460455" rx="0.230228" transform="matrix(-1 -1.74846e-07 -1.74846e-07 1 42.6045 30.0388)" fill="#E26CA5"/>
<rect width="3.07221" height="2.30227" rx="0.430476" transform="matrix(-1 -1.74846e-07 -1.74846e-07 1 48.7205 27.583)" fill="#A6A6A6" fill-opacity="0.5"/>
<rect width="2.15055" height="0.460455" rx="0.230228" transform="matrix(-1 -1.74846e-07 -1.74846e-07 1 48.2596 30.0388)" fill="#A6A6A6" fill-opacity="0.5"/>
<rect width="3.07221" height="2.30227" rx="0.430476" transform="matrix(-1 -1.74846e-07 -1.74846e-07 1 54.3755 27.583)" fill="#A6A6A6" fill-opacity="0.5"/>
<rect width="2.15055" height="0.460455" rx="0.230228" transform="matrix(-1 -1.74846e-07 -1.74846e-07 1 53.9147 30.0388)" fill="#A6A6A6" fill-opacity="0.5"/>
<rect width="3.07221" height="2.30227" rx="0.430476" transform="matrix(-1 -1.74846e-07 -1.74846e-07 1 60.0305 27.583)" fill="#61C3F2"/>
<rect width="2.15055" height="0.460455" rx="0.230228" transform="matrix(-1 -1.74846e-07 -1.74846e-07 1 59.5697 30.0388)" fill="#61C3F2"/>
<rect width="3.07221" height="2.30227" rx="0.430476" transform="matrix(-1 -1.74846e-07 -1.74846e-07 1 65.6857 27.583)" fill="#61C3F2"/>
<rect width="2.15055" height="0.460455" rx="0.230228" transform="matrix(-1 -1.74846e-07 -1.74846e-07 1 65.2249 30.0388)" fill="#61C3F2"/>
<rect width="3.07221" height="2.30227" rx="0.430476" transform="matrix(-1 -1.74846e-07 -1.74846e-07 1 71.3407 27.583)" fill="#A6A6A6" fill-opacity="0.5"/>
<rect width="2.15055" height="0.460455" rx="0.230228" transform="matrix(-1 -1.74846e-07 -1.74846e-07 1 70.8799 30.0388)" fill="#A6A6A6" fill-opacity="0.5"/>
<rect width="3.07221" height="2.30227" rx="0.430476" transform="matrix(-1 -1.74846e-07 -1.74846e-07 1 76.9957 27.583)" fill="#A6A6A6" fill-opacity="0.5"/>
<rect width="2.15055" height="0.460455" rx="0.230228" transform="matrix(-1 -1.74846e-07 -1.74846e-07 1 76.5349 30.0388)" fill="#A6A6A6" fill-opacity="0.5"/>
<rect width="3.07221" height="2.30227" rx="0.430476" transform="matrix(-1 -1.74846e-07 -1.74846e-07 1 82.6509 27.583)" fill="#61C3F2"/>
<rect width="2.15055" height="0.460455" rx="0.230228" transform="matrix(-1 -1.74846e-07 -1.74846e-07 1 82.1901 30.0388)" fill="#61C3F2"/>
<rect width="3.07221" height="2.30227" rx="0.430476" transform="matrix(-1 -1.74846e-07 -1.74846e-07 1 88.3059 27.583)" fill="#61C3F2"/>
<rect width="2.15055" height="0.460455" rx="0.230228" transform="matrix(-1 -1.74846e-07 -1.74846e-07 1 87.8451 30.0388)" fill="#61C3F2"/>
<rect width="3.07221" height="2.30227" rx="0.430476" transform="matrix(-1 -1.74846e-07 -1.74846e-07 1 93.9609 27.583)" fill="#A6A6A6" fill-opacity="0.5"/>
<rect width="2.15055" height="0.460455" rx="0.230228" transform="matrix(-1 -1.74846e-07 -1.74846e-07 1 93.5001 30.0388)" fill="#A6A6A6" fill-opacity="0.5"/>
<rect width="3.07221" height="2.30227" rx="0.430476" transform="matrix(-1 -1.74846e-07 -1.74846e-07 1 99.6161 27.583)" fill="#A6A6A6" fill-opacity="0.5"/>
<rect width="2.15055" height="0.460455" rx="0.230228" transform="matrix(-1 -1.74846e-07 -1.74846e-07 1 99.1552 30.0388)" fill="#A6A6A6" fill-opacity="0.5"/>
<rect width="3.07221" height="2.30227" rx="0.430476" transform="matrix(-1 -1.74846e-07 -1.74846e-07 1 105.271 27.583)" fill="#E26CA5"/>
<rect width="2.15055" height="0.460455" rx="0.230228" transform="matrix(-1 -1.74846e-07 -1.74846e-07 1 104.81 30.0388)" fill="#E26CA5"/>
<rect width="3.07221" height="2.30227" rx="0.430476" transform="matrix(-1 -1.74846e-07 -1.74846e-07 1 110.926 27.583)" fill="#E26CA5"/>
<rect width="2.15055" height="0.460455" rx="0.230228" transform="matrix(-1 -1.74846e-07 -1.74846e-07 1 110.465 30.0388)" fill="#E26CA5"/>
<rect width="3.07221" height="2.30227" rx="0.430476" transform="matrix(-1 -1.74846e-07 -1.74846e-07 1 122.236 27.583)" fill="#A6A6A6" fill-opacity="0.5"/>
<rect width="2.15055" height="0.460455" rx="0.230228" transform="matrix(-1 -1.74846e-07 -1.74846e-07 1 121.776 30.0388)" fill="#A6A6A6" fill-opacity="0.5"/>
<rect width="3.07221" height="2.30227" rx="0.430476" transform="matrix(-1 -1.74846e-07 -1.74846e-07 1 127.891 27.583)" fill="#A6A6A6" fill-opacity="0.5"/>
<rect width="2.15055" height="0.460455" rx="0.230228" transform="matrix(-1 -1.74846e-07 -1.74846e-07 1 127.431 30.0388)" fill="#A6A6A6" fill-opacity="0.5"/>
<rect width="3.07221" height="2.30227" rx="0.430476" transform="matrix(-1 -1.74846e-07 -1.74846e-07 1 133.546 27.583)" fill="#A6A6A6" fill-opacity="0.5"/>
<rect width="2.15055" height="0.460455" rx="0.230228" transform="matrix(-1 -1.74846e-07 -1.74846e-07 1 133.086 30.0388)" fill="#A6A6A6" fill-opacity="0.5"/>
<rect width="3.07221" height="2.30227" rx="0.430476" transform="matrix(-1 -1.74846e-07 -1.74846e-07 1 139.202 27.583)" fill="#61C3F2"/>
<rect width="2.15055" height="0.460455" rx="0.230228" transform="matrix(-1 -1.74846e-07 -1.74846e-07 1 138.741 30.0388)" fill="#61C3F2"/>
<rect width="3.07221" height="2.30227" rx="0.430476" transform="matrix(-1 -1.74846e-07 -1.74846e-07 1 144.857 27.583)" fill="#61C3F2"/>
<rect width="2.15055" height="0.460455" rx="0.230228" transform="matrix(-1 -1.74846e-07 -1.74846e-07 1 144.396 30.0388)" fill="#61C3F2"/>
<rect width="3.07221" height="2.30227" rx="0.430476" transform="matrix(-1 -1.74846e-07 -1.74846e-07 1 3.47986 34.3735)" fill="#A6A6A6" fill-opacity="0.5"/>
<rect width="2.15055" height="0.460455" rx="0.230228" transform="matrix(-1 -1.74846e-07 -1.74846e-07 1 3.01904 36.8293)" fill="#A6A6A6" fill-opacity="0.5"/>
<rect width="3.07221" height="2.30227" rx="0.430476" transform="matrix(-1 -1.74846e-07 -1.74846e-07 1 9.13489 34.3735)" fill="#A6A6A6" fill-opacity="0.5"/>
<rect width="2.15055" height="0.460455" rx="0.230228" transform="matrix(-1 -1.74846e-07 -1.74846e-07 1 8.67407 36.8293)" fill="#A6A6A6" fill-opacity="0.5"/>
<rect width="3.07221" height="2.30227" rx="0.430476" transform="matrix(-1 -1.74846e-07 -1.74846e-07 1 14.79 34.3735)" fill="#61C3F2"/>
<rect width="2.15055" height="0.460455" rx="0.230228" transform="matrix(-1 -1.74846e-07 -1.74846e-07 1 14.3292 36.8293)" fill="#61C3F2"/>
<rect width="3.07221" height="2.30227" rx="0.430476" transform="matrix(-1 -1.74846e-07 -1.74846e-07 1 20.4451 34.3735)" fill="#61C3F2"/>
<rect width="2.15055" height="0.460455" rx="0.230228" transform="matrix(-1 -1.74846e-07 -1.74846e-07 1 19.9843 36.8293)" fill="#61C3F2"/>
<rect width="3.07221" height="2.30227" rx="0.430476" transform="matrix(-1 -1.74846e-07 -1.74846e-07 1 26.1001 34.3735)" fill="#A6A6A6" fill-opacity="0.5"/>
<rect width="2.15055" height="0.460455" rx="0.230228" transform="matrix(-1 -1.74846e-07 -1.74846e-07 1 25.6393 36.8293)" fill="#A6A6A6" fill-opacity="0.5"/>
<rect width="3.07221" height="2.30227" rx="0.430476" transform="matrix(-1 -1.74846e-07 -1.74846e-07 1 37.4103 34.3736)" fill="#A6A6A6" fill-opacity="0.5"/>
<rect width="2.15055" height="0.460455" rx="0.230228" transform="matrix(-1 -1.74846e-07 -1.74846e-07 1 36.9495 36.8293)" fill="#A6A6A6" fill-opacity="0.5"/>
<rect width="3.07221" height="2.30227" rx="0.430476" transform="matrix(-1 -1.74846e-07 -1.74846e-07 1 43.0653 34.3736)" fill="#A6A6A6" fill-opacity="0.5"/>
<rect width="2.15055" height="0.460455" rx="0.230228" transform="matrix(-1 -1.74846e-07 -1.74846e-07 1 42.6045 36.8293)" fill="#A6A6A6" fill-opacity="0.5"/>
<rect width="3.07221" height="2.30227" rx="0.430476" transform="matrix(-1 -1.74846e-07 -1.74846e-07 1 48.7205 34.3736)" fill="#61C3F2"/>
<rect width="2.15055" height="0.460455" rx="0.230228" transform="matrix(-1 -1.74846e-07 -1.74846e-07 1 48.2596 36.8293)" fill="#61C3F2"/>
<rect width="3.07221" height="2.30227" rx="0.430476" transform="matrix(-1 -1.74846e-07 -1.74846e-07 1 54.3755 34.3736)" fill="#61C3F2"/>
<rect width="2.15055" height="0.460455" rx="0.230228" transform="matrix(-1 -1.74846e-07 -1.74846e-07 1 53.9147 36.8293)" fill="#61C3F2"/>
<rect width="3.07221" height="2.30227" rx="0.430476" transform="matrix(-1 -1.74846e-07 -1.74846e-07 1 60.0305 34.3736)" fill="#A6A6A6" fill-opacity="0.5"/>
<rect width="2.15055" height="0.460455" rx="0.230228" transform="matrix(-1 -1.74846e-07 -1.74846e-07 1 59.5697 36.8293)" fill="#A6A6A6" fill-opacity="0.5"/>
<rect width="3.07221" height="2.30227" rx="0.430476" transform="matrix(-1 -1.74846e-07 -1.74846e-07 1 65.6857 34.3736)" fill="#A6A6A6" fill-opacity="0.5"/>
<rect width="2.15055" height="0.460455" rx="0.230228" transform="matrix(-1 -1.74846e-07 -1.74846e-07 1 65.2249 36.8293)" fill="#A6A6A6" fill-opacity="0.5"/>
<rect width="3.07221" height="2.30227" rx="0.430476" transform="matrix(-1 -1.74846e-07 -1.74846e-07 1 71.3407 34.3736)" fill="#564CA3"/>
<rect width="2.15055" height="0.460455" rx="0.230228" transform="matrix(-1 -1.74846e-07 -1.74846e-07 1 70.8799 36.8293)" fill="#564CA3"/>
<rect width="3.07221" height="2.30227" rx="0.430476" transform="matrix(-1 -1.74846e-07 -1.74846e-07 1 76.9957 34.3736)" fill="#564CA3"/>
<rect width="2.15055" height="0.460455" rx="0.230228" transform="matrix(-1 -1.74846e-07 -1.74846e-07 1 76.5349 36.8293)" fill="#564CA3"/>
<rect width="3.07221" height="2.30227" rx="0.430476" transform="matrix(-1 -1.74846e-07 -1.74846e-07 1 82.6509 34.3736)" fill="#A6A6A6" fill-opacity="0.5"/>
<rect width="2.15055" height="0.460455" rx="0.230228" transform="matrix(-1 -1.74846e-07 -1.74846e-07 1 82.1901 36.8293)" fill="#A6A6A6" fill-opacity="0.5"/>
<rect width="3.07221" height="2.30227" rx="0.430476" transform="matrix(-1 -1.74846e-07 -1.74846e-07 1 88.3059 34.3736)" fill="#A6A6A6" fill-opacity="0.5"/>
<rect width="2.15055" height="0.460455" rx="0.230228" transform="matrix(-1 -1.74846e-07 -1.74846e-07 1 87.8451 36.8293)" fill="#A6A6A6" fill-opacity="0.5"/>
<rect width="3.07221" height="2.30227" rx="0.430476" transform="matrix(-1 -1.74846e-07 -1.74846e-07 1 93.9609 34.3736)" fill="#61C3F2"/>
<rect width="2.15055" height="0.460455" rx="0.230228" transform="matrix(-1 -1.74846e-07 -1.74846e-07 1 93.5001 36.8293)" fill="#61C3F2"/>
<rect width="3.07221" height="2.30227" rx="0.430476" transform="matrix(-1 -1.74846e-07 -1.74846e-07 1 99.6161 34.3736)" fill="#61C3F2"/>
<rect width="2.15055" height="0.460455" rx="0.230228" transform="matrix(-1 -1.74846e-07 -1.74846e-07 1 99.1552 36.8293)" fill="#61C3F2"/>
<rect width="3.07221" height="2.30227" rx="0.430476" transform="matrix(-1 -1.74846e-07 -1.74846e-07 1 105.271 34.3736)" fill="#A6A6A6" fill-opacity="0.5"/>
<rect width="2.15055" height="0.460455" rx="0.230228" transform="matrix(-1 -1.74846e-07 -1.74846e-07 1 104.81 36.8293)" fill="#A6A6A6" fill-opacity="0.5"/>
<rect width="3.07221" height="2.30227" rx="0.430476" transform="matrix(-1 -1.74846e-07 -1.74846e-07 1 110.926 34.3736)" fill="#A6A6A6" fill-opacity="0.5"/>
<rect width="2.15055" height="0.460455" rx="0.230228" transform="matrix(-1 -1.74846e-07 -1.74846e-07 1 110.465 36.8293)" fill="#A6A6A6" fill-opacity="0.5"/>
<rect width="3.07221" height="2.30227" rx="0.430476" transform="matrix(-1 -1.74846e-07 -1.74846e-07 1 122.236 34.3736)" fill="#A6A6A6" fill-opacity="0.5"/>
<rect width="2.15055" height="0.460455" rx="0.230228" transform="matrix(-1 -1.74846e-07 -1.74846e-07 1 121.776 36.8293)" fill="#A6A6A6" fill-opacity="0.5"/>
<rect width="3.07221" height="2.30227" rx="0.430476" transform="matrix(-1 -1.74846e-07 -1.74846e-07 1 127.891 34.3736)" fill="#61C3F2"/>
<rect width="2.15055" height="0.460455" rx="0.230228" transform="matrix(-1 -1.74846e-07 -1.74846e-07 1 127.431 36.8293)" fill="#61C3F2"/>
<rect width="3.07221" height="2.30227" rx="0.430476" transform="matrix(-1 -1.74846e-07 -1.74846e-07 1 133.546 34.3736)" fill="#61C3F2"/>
<rect width="2.15055" height="0.460455" rx="0.230228" transform="matrix(-1 -1.74846e-07 -1.74846e-07 1 133.086 36.8293)" fill="#61C3F2"/>
<rect width="3.07221" height="2.30227" rx="0.430476" transform="matrix(-1 -1.74846e-07 -1.74846e-07 1 139.202 34.3736)" fill="#A6A6A6" fill-opacity="0.5"/>
<rect width="2.15055" height="0.460455" rx="0.230228" transform="matrix(-1 -1.74846e-07 -1.74846e-07 1 138.741 36.8293)" fill="#A6A6A6" fill-opacity="0.5"/>
<rect width="3.07221" height="2.30227" rx="0.430476" transform="matrix(-1 -1.74846e-07 -1.74846e-07 1 144.857 34.3736)" fill="#A6A6A6" fill-opacity="0.5"/>
<rect width="2.15055" height="0.460455" rx="0.230228" transform="matrix(-1 -1.74846e-07 -1.74846e-07 1 144.396 36.8293)" fill="#A6A6A6" fill-opacity="0.5"/>
<rect width="3.07221" height="2.30227" rx="0.430476" transform="matrix(-1 -1.74846e-07 -1.74846e-07 1 3.47986 41.1641)" fill="#61C3F2"/>
<rect width="2.15055" height="0.460455" rx="0.230228" transform="matrix(-1 -1.74846e-07 -1.74846e-07 1 3.01904 43.6198)" fill="#61C3F2"/>
<rect width="3.07221" height="2.30227" rx="0.430476" transform="matrix(-1 -1.74846e-07 -1.74846e-07 1 9.13489 41.1641)" fill="#61C3F2"/>
<rect width="2.15055" height="0.460455" rx="0.230228" transform="matrix(-1 -1.74846e-07 -1.74846e-07 1 8.67407 43.6198)" fill="#61C3F2"/>
<rect width="3.07221" height="2.30227" rx="0.430476" transform="matrix(-1 -1.74846e-07 -1.74846e-07 1 14.79 41.1641)" fill="#A6A6A6" fill-opacity="0.5"/>
<rect width="2.15055" height="0.460455" rx="0.230228" transform="matrix(-1 -1.74846e-07 -1.74846e-07 1 14.3292 43.6198)" fill="#A6A6A6" fill-opacity="0.5"/>
<rect width="3.07221" height="2.30227" rx="0.430476" transform="matrix(-1 -1.74846e-07 -1.74846e-07 1 20.4451 41.1641)" fill="#A6A6A6" fill-opacity="0.5"/>
<rect width="2.15055" height="0.460455" rx="0.230228" transform="matrix(-1 -1.74846e-07 -1.74846e-07 1 19.9843 43.6198)" fill="#A6A6A6" fill-opacity="0.5"/>
<rect width="3.07221" height="2.30227" rx="0.430476" transform="matrix(-1 -1.74846e-07 -1.74846e-07 1 26.1001 41.1641)" fill="#A6A6A6" fill-opacity="0.5"/>
<rect width="2.15055" height="0.460455" rx="0.230228" transform="matrix(-1 -1.74846e-07 -1.74846e-07 1 25.6393 43.6198)" fill="#A6A6A6" fill-opacity="0.5"/>
<rect width="3.07221" height="2.30227" rx="0.430476" transform="matrix(-1 -1.74846e-07 -1.74846e-07 1 37.4103 41.1641)" fill="#15D2BC"/>
<rect width="2.15055" height="0.460455" rx="0.230228" transform="matrix(-1 -1.74846e-07 -1.74846e-07 1 36.9495 43.6198)" fill="#15D2BC"/>
<rect width="3.07221" height="2.30227" rx="0.430476" transform="matrix(-1 -1.74846e-07 -1.74846e-07 1 43.0653 41.1641)" fill="#15D2BC"/>
<rect width="2.15055" height="0.460455" rx="0.230228" transform="matrix(-1 -1.74846e-07 -1.74846e-07 1 42.6045 43.6198)" fill="#15D2BC"/>
<rect width="3.07221" height="2.30227" rx="0.430476" transform="matrix(-1 -1.74846e-07 -1.74846e-07 1 48.7205 41.1641)" fill="#A6A6A6" fill-opacity="0.5"/>
<rect width="2.15055" height="0.460455" rx="0.230228" transform="matrix(-1 -1.74846e-07 -1.74846e-07 1 48.2596 43.6198)" fill="#A6A6A6" fill-opacity="0.5"/>
<rect width="3.07221" height="2.30227" rx="0.430476" transform="matrix(-1 -1.74846e-07 -1.74846e-07 1 54.3755 41.1641)" fill="#A6A6A6" fill-opacity="0.5"/>
<rect width="2.15055" height="0.460455" rx="0.230228" transform="matrix(-1 -1.74846e-07 -1.74846e-07 1 53.9147 43.6198)" fill="#A6A6A6" fill-opacity="0.5"/>
<rect width="3.07221" height="2.30227" rx="0.430476" transform="matrix(-1 -1.74846e-07 -1.74846e-07 1 60.0305 41.1641)" fill="#61C3F2"/>
<rect width="2.15055" height="0.460455" rx="0.230228" transform="matrix(-1 -1.74846e-07 -1.74846e-07 1 59.5697 43.6198)" fill="#61C3F2"/>
<rect width="3.07221" height="2.30227" rx="0.430476" transform="matrix(-1 -1.74846e-07 -1.74846e-07 1 65.6857 41.1641)" fill="#61C3F2"/>
<rect width="2.15055" height="0.460455" rx="0.230228" transform="matrix(-1 -1.74846e-07 -1.74846e-07 1 65.2249 43.6198)" fill="#61C3F2"/>
<rect width="3.07221" height="2.30227" rx="0.430476" transform="matrix(-1 -1.74846e-07 -1.74846e-07 1 71.3407 41.1641)" fill="#A6A6A6" fill-opacity="0.5"/>
<rect width="2.15055" height="0.460455" rx="0.230228" transform="matrix(-1 -1.74846e-07 -1.74846e-07 1 70.8799 43.6198)" fill="#A6A6A6" fill-opacity="0.5"/>
<rect width="3.07221" height="2.30227" rx="0.430476" transform="matrix(-1 -1.74846e-07 -1.74846e-07 1 76.9957 41.1641)" fill="#A6A6A6" fill-opacity="0.5"/>
<rect width="2.15055" height="0.460455" rx="0.230228" transform="matrix(-1 -1.74846e-07 -1.74846e-07 1 76.5349 43.6198)" fill="#A6A6A6" fill-opacity="0.5"/>
<rect width="3.07221" height="2.30227" rx="0.430476" transform="matrix(-1 -1.74846e-07 -1.74846e-07 1 82.6509 41.1641)" fill="#61C3F2"/>
<rect width="2.15055" height="0.460455" rx="0.230228" transform="matrix(-1 -1.74846e-07 -1.74846e-07 1 82.1901 43.6198)" fill="#61C3F2"/>
<rect width="3.07221" height="2.30227" rx="0.430476" transform="matrix(-1 -1.74846e-07 -1.74846e-07 1 88.3059 41.1641)" fill="#61C3F2"/>
<rect width="2.15055" height="0.460455" rx="0.230228" transform="matrix(-1 -1.74846e-07 -1.74846e-07 1 87.8451 43.6198)" fill="#61C3F2"/>
<rect width="3.07221" height="2.30227" rx="0.430476" transform="matrix(-1 -1.74846e-07 -1.74846e-07 1 93.9609 41.1641)" fill="#A6A6A6" fill-opacity="0.5"/>
<rect width="2.15055" height="0.460455" rx="0.230228" transform="matrix(-1 -1.74846e-07 -1.74846e-07 1 93.5001 43.6198)" fill="#A6A6A6" fill-opacity="0.5"/>
<rect width="3.07221" height="2.30227" rx="0.430476" transform="matrix(-1 -1.74846e-07 -1.74846e-07 1 99.6161 41.1641)" fill="#A6A6A6" fill-opacity="0.5"/>
<rect width="2.15055" height="0.460455" rx="0.230228" transform="matrix(-1 -1.74846e-07 -1.74846e-07 1 99.1552 43.6198)" fill="#A6A6A6" fill-opacity="0.5"/>
<rect width="3.07221" height="2.30227" rx="0.430476" transform="matrix(-1 -1.74846e-07 -1.74846e-07 1 105.271 41.1641)" fill="#15D2BC"/>
<rect width="2.15055" height="0.460455" rx="0.230228" transform="matrix(-1 -1.74846e-07 -1.74846e-07 1 104.81 43.6198)" fill="#15D2BC"/>
<rect width="3.07221" height="2.30227" rx="0.430476" transform="matrix(-1 -1.74846e-07 -1.74846e-07 1 110.926 41.1641)" fill="#15D2BC"/>
<rect width="2.15055" height="0.460455" rx="0.230228" transform="matrix(-1 -1.74846e-07 -1.74846e-07 1 110.465 43.6198)" fill="#15D2BC"/>
<rect width="3.07221" height="2.30227" rx="0.430476" transform="matrix(-1 -1.74846e-07 -1.74846e-07 1 122.236 41.1641)" fill="#A6A6A6" fill-opacity="0.5"/>
<rect width="2.15055" height="0.460455" rx="0.230228" transform="matrix(-1 -1.74846e-07 -1.74846e-07 1 121.776 43.6198)" fill="#A6A6A6" fill-opacity="0.5"/>
<rect width="3.07221" height="2.30227" rx="0.430476" transform="matrix(-1 -1.74846e-07 -1.74846e-07 1 127.891 41.1641)" fill="#A6A6A6" fill-opacity="0.5"/>
<rect width="2.15055" height="0.460455" rx="0.230228" transform="matrix(-1 -1.74846e-07 -1.74846e-07 1 127.431 43.6198)" fill="#A6A6A6" fill-opacity="0.5"/>
<rect width="3.07221" height="2.30227" rx="0.430476" transform="matrix(-1 -1.74846e-07 -1.74846e-07 1 133.546 41.1641)" fill="#A6A6A6" fill-opacity="0.5"/>
<rect width="2.15055" height="0.460455" rx="0.230228" transform="matrix(-1 -1.74846e-07 -1.74846e-07 1 133.086 43.6198)" fill="#A6A6A6" fill-opacity="0.5"/>
<rect width="3.07221" height="2.30227" rx="0.430476" transform="matrix(-1 -1.74846e-07 -1.74846e-07 1 139.202 41.1641)" fill="#61C3F2"/>
<rect width="2.15055" height="0.460455" rx="0.230228" transform="matrix(-1 -1.74846e-07 -1.74846e-07 1 138.741 43.6198)" fill="#61C3F2"/>
<rect width="3.07221" height="2.30227" rx="0.430476" transform="matrix(-1 -1.74846e-07 -1.74846e-07 1 144.857 41.1641)" fill="#61C3F2"/>
<rect width="2.15055" height="0.460455" rx="0.230228" transform="matrix(-1 -1.74846e-07 -1.74846e-07 1 144.396 43.6198)" fill="#61C3F2"/>
<rect width="3.07221" height="2.30227" rx="0.430476" transform="matrix(-1 -1.74846e-07 -1.74846e-07 1 3.47986 47.9546)" fill="#A6A6A6" fill-opacity="0.5"/>
<rect width="2.15055" height="0.460455" rx="0.230228" transform="matrix(-1 -1.74846e-07 -1.74846e-07 1 3.01904 50.4103)" fill="#A6A6A6" fill-opacity="0.5"/>
<rect width="3.07221" height="2.30227" rx="0.430476" transform="matrix(-1 -1.74846e-07 -1.74846e-07 1 9.13489 47.9546)" fill="#A6A6A6" fill-opacity="0.5"/>
<rect width="2.15055" height="0.460455" rx="0.230228" transform="matrix(-1 -1.74846e-07 -1.74846e-07 1 8.67407 50.4103)" fill="#A6A6A6" fill-opacity="0.5"/>
<rect width="3.07221" height="2.30227" rx="0.430476" transform="matrix(-1 -1.74846e-07 -1.74846e-07 1 14.79 47.9546)" fill="#61C3F2"/>
<rect width="2.15055" height="0.460455" rx="0.230228" transform="matrix(-1 -1.74846e-07 -1.74846e-07 1 14.3292 50.4103)" fill="#61C3F2"/>
<rect width="3.07221" height="2.30227" rx="0.430476" transform="matrix(-1 -1.74846e-07 -1.74846e-07 1 20.4451 47.9546)" fill="#61C3F2"/>
<rect width="2.15055" height="0.460455" rx="0.230228" transform="matrix(-1 -1.74846e-07 -1.74846e-07 1 19.9843 50.4103)" fill="#61C3F2"/>
<rect width="3.07221" height="2.30227" rx="0.430476" transform="matrix(-1 -1.74846e-07 -1.74846e-07 1 26.1001 47.9546)" fill="#A6A6A6" fill-opacity="0.5"/>
<rect width="2.15055" height="0.460455" rx="0.230228" transform="matrix(-1 -1.74846e-07 -1.74846e-07 1 25.6393 50.4103)" fill="#A6A6A6" fill-opacity="0.5"/>
<rect width="3.07221" height="2.30227" rx="0.430476" transform="matrix(-1 -1.74846e-07 -1.74846e-07 1 37.4103 47.9546)" fill="#A6A6A6" fill-opacity="0.5"/>
<rect width="2.15055" height="0.460455" rx="0.230228" transform="matrix(-1 -1.74846e-07 -1.74846e-07 1 36.9495 50.4103)" fill="#A6A6A6" fill-opacity="0.5"/>
<rect width="3.07221" height="2.30227" rx="0.430476" transform="matrix(-1 -1.74846e-07 -1.74846e-07 1 43.0653 47.9546)" fill="#A6A6A6" fill-opacity="0.5"/>
<rect width="2.15055" height="0.460455" rx="0.230228" transform="matrix(-1 -1.74846e-07 -1.74846e-07 1 42.6045 50.4103)" fill="#A6A6A6" fill-opacity="0.5"/>
<rect width="3.07221" height="2.30227" rx="0.430476" transform="matrix(-1 -1.74846e-07 -1.74846e-07 1 48.7205 47.9546)" fill="#61C3F2"/>
<rect width="2.15055" height="0.460455" rx="0.230228" transform="matrix(-1 -1.74846e-07 -1.74846e-07 1 48.2596 50.4103)" fill="#61C3F2"/>
<rect width="3.07221" height="2.30227" rx="0.430476" transform="matrix(-1 -1.74846e-07 -1.74846e-07 1 54.3755 47.9546)" fill="#61C3F2"/>
<rect width="2.15055" height="0.460455" rx="0.230228" transform="matrix(-1 -1.74846e-07 -1.74846e-07 1 53.9147 50.4103)" fill="#61C3F2"/>
<rect width="3.07221" height="2.30227" rx="0.430476" transform="matrix(-1 -1.74846e-07 -1.74846e-07 1 60.0305 47.9546)" fill="#A6A6A6" fill-opacity="0.5"/>
<rect width="2.15055" height="0.460455" rx="0.230228" transform="matrix(-1 -1.74846e-07 -1.74846e-07 1 59.5697 50.4103)" fill="#A6A6A6" fill-opacity="0.5"/>
<rect width="3.07221" height="2.30227" rx="0.430476" transform="matrix(-1 -1.74846e-07 -1.74846e-07 1 65.6857 47.9546)" fill="#A6A6A6" fill-opacity="0.5"/>
<rect width="2.15055" height="0.460455" rx="0.230228" transform="matrix(-1 -1.74846e-07 -1.74846e-07 1 65.2249 50.4103)" fill="#A6A6A6" fill-opacity="0.5"/>
<rect width="3.07221" height="2.30227" rx="0.430476" transform="matrix(-1 -1.74846e-07 -1.74846e-07 1 71.3407 47.9546)" fill="#61C3F2"/>
<rect width="2.15055" height="0.460455" rx="0.230228" transform="matrix(-1 -1.74846e-07 -1.74846e-07 1 70.8799 50.4103)" fill="#61C3F2"/>
<rect width="3.07221" height="2.30227" rx="0.430476" transform="matrix(-1 -1.74846e-07 -1.74846e-07 1 76.9957 47.9546)" fill="#61C3F2"/>
<rect width="2.15055" height="0.460455" rx="0.230228" transform="matrix(-1 -1.74846e-07 -1.74846e-07 1 76.5349 50.4103)" fill="#61C3F2"/>
<rect width="3.07221" height="2.30227" rx="0.430476" transform="matrix(-1 -1.74846e-07 -1.74846e-07 1 82.6509 47.9546)" fill="#A6A6A6" fill-opacity="0.5"/>
<rect width="2.15055" height="0.460455" rx="0.230228" transform="matrix(-1 -1.74846e-07 -1.74846e-07 1 82.1901 50.4103)" fill="#A6A6A6" fill-opacity="0.5"/>
<rect width="3.07221" height="2.30227" rx="0.430476" transform="matrix(-1 -1.74846e-07 -1.74846e-07 1 88.3059 47.9546)" fill="#A6A6A6" fill-opacity="0.5"/>
<rect width="2.15055" height="0.460455" rx="0.230228" transform="matrix(-1 -1.74846e-07 -1.74846e-07 1 87.8451 50.4103)" fill="#A6A6A6" fill-opacity="0.5"/>
<rect width="3.07221" height="2.30227" rx="0.430476" transform="matrix(-1 -1.74846e-07 -1.74846e-07 1 93.9609 47.9546)" fill="#61C3F2"/>
<rect width="2.15055" height="0.460455" rx="0.230228" transform="matrix(-1 -1.74846e-07 -1.74846e-07 1 93.5001 50.4103)" fill="#61C3F2"/>
<rect width="3.07221" height="2.30227" rx="0.430476" transform="matrix(-1 -1.74846e-07 -1.74846e-07 1 99.6161 47.9546)" fill="#61C3F2"/>
<rect width="2.15055" height="0.460455" rx="0.230228" transform="matrix(-1 -1.74846e-07 -1.74846e-07 1 99.1552 50.4103)" fill="#61C3F2"/>
<rect width="3.07221" height="2.30227" rx="0.430476" transform="matrix(-1 -1.74846e-07 -1.74846e-07 1 105.271 47.9546)" fill="#A6A6A6" fill-opacity="0.5"/>
<rect width="2.15055" height="0.460455" rx="0.230228" transform="matrix(-1 -1.74846e-07 -1.74846e-07 1 104.81 50.4103)" fill="#A6A6A6" fill-opacity="0.5"/>
<rect width="3.07221" height="2.30227" rx="0.430476" transform="matrix(-1 -1.74846e-07 -1.74846e-07 1 110.926 47.9546)" fill="#A6A6A6" fill-opacity="0.5"/>
<rect width="2.15055" height="0.460455" rx="0.230228" transform="matrix(-1 -1.74846e-07 -1.74846e-07 1 110.465 50.4103)" fill="#A6A6A6" fill-opacity="0.5"/>
<rect width="3.07221" height="2.30227" rx="0.430476" transform="matrix(-1 -1.74846e-07 -1.74846e-07 1 122.236 47.9546)" fill="#A6A6A6" fill-opacity="0.5"/>
<rect width="2.15055" height="0.460455" rx="0.230228" transform="matrix(-1 -1.74846e-07 -1.74846e-07 1 121.776 50.4103)" fill="#A6A6A6" fill-opacity="0.5"/>
<rect width="3.07221" height="2.30227" rx="0.430476" transform="matrix(-1 -1.74846e-07 -1.74846e-07 1 127.891 47.9546)" fill="#61C3F2"/>
<rect width="2.15055" height="0.460455" rx="0.230228" transform="matrix(-1 -1.74846e-07 -1.74846e-07 1 127.431 50.4103)" fill="#61C3F2"/>
<rect width="3.07221" height="2.30227" rx="0.430476" transform="matrix(-1 -1.74846e-07 -1.74846e-07 1 133.546 47.9546)" fill="#61C3F2"/>
<rect width="2.15055" height="0.460455" rx="0.230228" transform="matrix(-1 -1.74846e-07 -1.74846e-07 1 133.086 50.4103)" fill="#61C3F2"/>
<rect width="3.07221" height="2.30227" rx="0.430476" transform="matrix(-1 -1.74846e-07 -1.74846e-07 1 139.202 47.9546)" fill="#A6A6A6" fill-opacity="0.5"/>
<rect width="2.15055" height="0.460455" rx="0.230228" transform="matrix(-1 -1.74846e-07 -1.74846e-07 1 138.741 50.4103)" fill="#A6A6A6" fill-opacity="0.5"/>
<rect width="3.07221" height="2.30227" rx="0.430476" transform="matrix(-1 -1.74846e-07 -1.74846e-07 1 144.857 47.9546)" fill="#A6A6A6" fill-opacity="0.5"/>
<rect width="2.15055" height="0.460455" rx="0.230228" transform="matrix(-1 -1.74846e-07 -1.74846e-07 1 144.396 50.4103)" fill="#A6A6A6" fill-opacity="0.5"/>
<rect width="3.07221" height="2.30227" rx="0.430476" transform="matrix(-1 -1.74846e-07 -1.74846e-07 1 3.47986 54.7451)" fill="#61C3F2"/>
<rect width="2.15055" height="0.460455" rx="0.230228" transform="matrix(-1 -1.74846e-07 -1.74846e-07 1 3.01904 57.2008)" fill="#61C3F2"/>
<rect width="3.07221" height="2.30227" rx="0.430476" transform="matrix(-1 -1.74846e-07 -1.74846e-07 1 9.13489 54.7451)" fill="#61C3F2"/>
<rect width="2.15055" height="0.460455" rx="0.230228" transform="matrix(-1 -1.74846e-07 -1.74846e-07 1 8.67407 57.2008)" fill="#61C3F2"/>
<rect width="3.07221" height="2.30227" rx="0.430476" transform="matrix(-1 -1.74846e-07 -1.74846e-07 1 14.79 54.7451)" fill="#A6A6A6" fill-opacity="0.5"/>
<rect width="2.15055" height="0.460455" rx="0.230228" transform="matrix(-1 -1.74846e-07 -1.74846e-07 1 14.3292 57.2008)" fill="#A6A6A6" fill-opacity="0.5"/>
<rect width="3.07221" height="2.30227" rx="0.430476" transform="matrix(-1 -1.74846e-07 -1.74846e-07 1 20.4451 54.7451)" fill="#A6A6A6" fill-opacity="0.5"/>
<rect width="2.15055" height="0.460455" rx="0.230228" transform="matrix(-1 -1.74846e-07 -1.74846e-07 1 19.9843 57.2008)" fill="#A6A6A6" fill-opacity="0.5"/>
<rect width="3.07221" height="2.30227" rx="0.430476" transform="matrix(-1 -1.74846e-07 -1.74846e-07 1 26.1001 54.7451)" fill="#A6A6A6" fill-opacity="0.5"/>
<rect width="2.15055" height="0.460455" rx="0.230228" transform="matrix(-1 -1.74846e-07 -1.74846e-07 1 25.6393 57.2008)" fill="#A6A6A6" fill-opacity="0.5"/>
<rect width="3.07221" height="2.30227" rx="0.430476" transform="matrix(-1 -1.74846e-07 -1.74846e-07 1 37.4103 54.7451)" fill="#61C3F2"/>
<rect width="2.15055" height="0.460455" rx="0.230228" transform="matrix(-1 -1.74846e-07 -1.74846e-07 1 36.9495 57.2008)" fill="#61C3F2"/>
<rect width="3.07221" height="2.30227" rx="0.430476" transform="matrix(-1 -1.74846e-07 -1.74846e-07 1 43.0653 54.7451)" fill="#61C3F2"/>
<rect width="2.15055" height="0.460455" rx="0.230228" transform="matrix(-1 -1.74846e-07 -1.74846e-07 1 42.6045 57.2008)" fill="#61C3F2"/>
<rect width="3.07221" height="2.30227" rx="0.430476" transform="matrix(-1 -1.74846e-07 -1.74846e-07 1 48.7205 54.7451)" fill="#A6A6A6" fill-opacity="0.5"/>
<rect width="2.15055" height="0.460455" rx="0.230228" transform="matrix(-1 -1.74846e-07 -1.74846e-07 1 48.2596 57.2008)" fill="#A6A6A6" fill-opacity="0.5"/>
<rect width="3.07221" height="2.30227" rx="0.430476" transform="matrix(-1 -1.74846e-07 -1.74846e-07 1 54.3755 54.7451)" fill="#A6A6A6" fill-opacity="0.5"/>
<rect width="2.15055" height="0.460455" rx="0.230228" transform="matrix(-1 -1.74846e-07 -1.74846e-07 1 53.9147 57.2008)" fill="#A6A6A6" fill-opacity="0.5"/>
<rect width="3.07221" height="2.30227" rx="0.430476" transform="matrix(-1 -1.74846e-07 -1.74846e-07 1 60.0305 54.7451)" fill="#61C3F2"/>
<rect width="2.15055" height="0.460455" rx="0.230228" transform="matrix(-1 -1.74846e-07 -1.74846e-07 1 59.5697 57.2008)" fill="#61C3F2"/>
<rect width="3.07221" height="2.30227" rx="0.430476" transform="matrix(-1 -1.74846e-07 -1.74846e-07 1 65.6857 54.7451)" fill="#61C3F2"/>
<rect width="2.15055" height="0.460455" rx="0.230228" transform="matrix(-1 -1.74846e-07 -1.74846e-07 1 65.2249 57.2008)" fill="#61C3F2"/>
<rect width="3.07221" height="2.30227" rx="0.430476" transform="matrix(-1 -1.74846e-07 -1.74846e-07 1 71.3407 54.7451)" fill="#A6A6A6" fill-opacity="0.5"/>
<rect width="2.15055" height="0.460455" rx="0.230228" transform="matrix(-1 -1.74846e-07 -1.74846e-07 1 70.8799 57.2008)" fill="#A6A6A6" fill-opacity="0.5"/>
<rect width="3.07221" height="2.30227" rx="0.430476" transform="matrix(-1 -1.74846e-07 -1.74846e-07 1 76.9957 54.7451)" fill="#A6A6A6" fill-opacity="0.5"/>
<rect width="2.15055" height="0.460455" rx="0.230228" transform="matrix(-1 -1.74846e-07 -1.74846e-07 1 76.5349 57.2008)" fill="#A6A6A6" fill-opacity="0.5"/>
<rect width="3.07221" height="2.30227" rx="0.430476" transform="matrix(-1 -1.74846e-07 -1.74846e-07 1 82.6509 54.7451)" fill="#61C3F2"/>
<rect width="2.15055" height="0.460455" rx="0.230228" transform="matrix(-1 -1.74846e-07 -1.74846e-07 1 82.1901 57.2008)" fill="#61C3F2"/>
<rect width="3.07221" height="2.30227" rx="0.430476" transform="matrix(-1 -1.74846e-07 -1.74846e-07 1 88.3059 54.7451)" fill="#61C3F2"/>
<rect width="2.15055" height="0.460455" rx="0.230228" transform="matrix(-1 -1.74846e-07 -1.74846e-07 1 87.8451 57.2008)" fill="#61C3F2"/>
<rect width="3.07221" height="2.30227" rx="0.430476" transform="matrix(-1 -1.74846e-07 -1.74846e-07 1 93.9609 54.7451)" fill="#A6A6A6" fill-opacity="0.5"/>
<rect width="2.15055" height="0.460455" rx="0.230228" transform="matrix(-1 -1.74846e-07 -1.74846e-07 1 93.5001 57.2008)" fill="#A6A6A6" fill-opacity="0.5"/>
<rect width="3.07221" height="2.30227" rx="0.430476" transform="matrix(-1 -1.74846e-07 -1.74846e-07 1 99.6161 54.7451)" fill="#A6A6A6" fill-opacity="0.5"/>
<rect width="2.15055" height="0.460455" rx="0.230228" transform="matrix(-1 -1.74846e-07 -1.74846e-07 1 99.1552 57.2008)" fill="#A6A6A6" fill-opacity="0.5"/>
<rect width="3.07221" height="2.30227" rx="0.430476" transform="matrix(-1 -1.74846e-07 -1.74846e-07 1 105.271 54.7451)" fill="#61C3F2"/>
<rect width="2.15055" height="0.460455" rx="0.230228" transform="matrix(-1 -1.74846e-07 -1.74846e-07 1 104.81 57.2008)" fill="#61C3F2"/>
<rect width="3.07221" height="2.30227" rx="0.430476" transform="matrix(-1 -1.74846e-07 -1.74846e-07 1 110.926 54.7451)" fill="#61C3F2"/>
<rect width="2.15055" height="0.460455" rx="0.230228" transform="matrix(-1 -1.74846e-07 -1.74846e-07 1 110.465 57.2008)" fill="#61C3F2"/>
<rect width="3.07221" height="2.30227" rx="0.430476" transform="matrix(-1 -1.74846e-07 -1.74846e-07 1 122.236 54.7451)" fill="#A6A6A6" fill-opacity="0.5"/>
<rect width="2.15055" height="0.460455" rx="0.230228" transform="matrix(-1 -1.74846e-07 -1.74846e-07 1 121.776 57.2008)" fill="#A6A6A6" fill-opacity="0.5"/>
<rect width="3.07221" height="2.30227" rx="0.430476" transform="matrix(-1 -1.74846e-07 -1.74846e-07 1 127.891 54.7451)" fill="#A6A6A6" fill-opacity="0.5"/>
<rect width="2.15055" height="0.460455" rx="0.230228" transform="matrix(-1 -1.74846e-07 -1.74846e-07 1 127.431 57.2008)" fill="#A6A6A6" fill-opacity="0.5"/>
<rect width="3.07221" height="2.30227" rx="0.430476" transform="matrix(-1 -1.74846e-07 -1.74846e-07 1 133.546 54.7451)" fill="#A6A6A6" fill-opacity="0.5"/>
<rect width="2.15055" height="0.460455" rx="0.230228" transform="matrix(-1 -1.74846e-07 -1.74846e-07 1 133.086 57.2008)" fill="#A6A6A6" fill-opacity="0.5"/>
<rect width="3.07221" height="2.30227" rx="0.430476" transform="matrix(-1 -1.74846e-07 -1.74846e-07 1 139.202 54.7451)" fill="#61C3F2"/>
<rect width="2.15055" height="0.460455" rx="0.230228" transform="matrix(-1 -1.74846e-07 -1.74846e-07 1 138.741 57.2008)" fill="#61C3F2"/>
<rect width="3.07221" height="2.30227" rx="0.430476" transform="matrix(-1 -1.74846e-07 -1.74846e-07 1 144.857 54.7451)" fill="#61C3F2"/>
<rect width="2.15055" height="0.460455" rx="0.230228" transform="matrix(-1 -1.74846e-07 -1.74846e-07 1 144.396 57.2008)" fill="#61C3F2"/>
<rect width="3.07221" height="2.30227" rx="0.430476" transform="matrix(-1 -1.74846e-07 -1.74846e-07 1 3.47986 61.5356)" fill="#A6A6A6" fill-opacity="0.5"/>
<rect width="2.15055" height="0.460455" rx="0.230228" transform="matrix(-1 -1.74846e-07 -1.74846e-07 1 3.01904 63.9913)" fill="#A6A6A6" fill-opacity="0.5"/>
<rect width="3.07221" height="2.30227" rx="0.430476" transform="matrix(-1 -1.74846e-07 -1.74846e-07 1 9.13489 61.5356)" fill="#A6A6A6" fill-opacity="0.5"/>
<rect width="2.15055" height="0.460455" rx="0.230228" transform="matrix(-1 -1.74846e-07 -1.74846e-07 1 8.67407 63.9913)" fill="#A6A6A6" fill-opacity="0.5"/>
<rect width="3.07221" height="2.30227" rx="0.430476" transform="matrix(-1 -1.74846e-07 -1.74846e-07 1 14.79 61.5356)" fill="#61C3F2"/>
<rect width="2.15055" height="0.460455" rx="0.230228" transform="matrix(-1 -1.74846e-07 -1.74846e-07 1 14.3292 63.9913)" fill="#61C3F2"/>
<rect width="3.07221" height="2.30227" rx="0.430476" transform="matrix(-1 -1.74846e-07 -1.74846e-07 1 20.4451 61.5356)" fill="#61C3F2"/>
<rect width="2.15055" height="0.460455" rx="0.230228" transform="matrix(-1 -1.74846e-07 -1.74846e-07 1 19.9843 63.9913)" fill="#61C3F2"/>
<rect width="3.07221" height="2.30227" rx="0.430476" transform="matrix(-1 -1.74846e-07 -1.74846e-07 1 26.1001 61.5356)" fill="#A6A6A6" fill-opacity="0.5"/>
<rect width="2.15055" height="0.460455" rx="0.230228" transform="matrix(-1 -1.74846e-07 -1.74846e-07 1 25.6393 63.9913)" fill="#A6A6A6" fill-opacity="0.5"/>
<rect width="3.07221" height="2.30227" rx="0.430476" transform="matrix(-1 -1.74846e-07 -1.74846e-07 1 37.4103 61.5356)" fill="#A6A6A6" fill-opacity="0.5"/>
<rect width="2.15055" height="0.460455" rx="0.230228" transform="matrix(-1 -1.74846e-07 -1.74846e-07 1 36.9495 63.9913)" fill="#A6A6A6" fill-opacity="0.5"/>
<rect width="3.07221" height="2.30227" rx="0.430476" transform="matrix(-1 -1.74846e-07 -1.74846e-07 1 43.0653 61.5356)" fill="#A6A6A6" fill-opacity="0.5"/>
<rect width="2.15055" height="0.460455" rx="0.230228" transform="matrix(-1 -1.74846e-07 -1.74846e-07 1 42.6045 63.9913)" fill="#A6A6A6" fill-opacity="0.5"/>
<rect width="3.07221" height="2.30227" rx="0.430476" transform="matrix(-1 -1.74846e-07 -1.74846e-07 1 48.7205 61.5356)" fill="#61C3F2"/>
<rect width="2.15055" height="0.460455" rx="0.230228" transform="matrix(-1 -1.74846e-07 -1.74846e-07 1 48.2596 63.9913)" fill="#61C3F2"/>
<rect width="3.07221" height="2.30227" rx="0.430476" transform="matrix(-1 -1.74846e-07 -1.74846e-07 1 54.3755 61.5356)" fill="#61C3F2"/>
<rect width="2.15055" height="0.460455" rx="0.230228" transform="matrix(-1 -1.74846e-07 -1.74846e-07 1 53.9147 63.9913)" fill="#61C3F2"/>
<rect width="3.07221" height="2.30227" rx="0.430476" transform="matrix(-1 -1.74846e-07 -1.74846e-07 1 60.0305 61.5356)" fill="#A6A6A6" fill-opacity="0.5"/>
<rect width="2.15055" height="0.460455" rx="0.230228" transform="matrix(-1 -1.74846e-07 -1.74846e-07 1 59.5697 63.9913)" fill="#A6A6A6" fill-opacity="0.5"/>
<rect width="3.07221" height="2.30227" rx="0.430476" transform="matrix(-1 -1.74846e-07 -1.74846e-07 1 65.6857 61.5356)" fill="#A6A6A6" fill-opacity="0.5"/>
<rect width="2.15055" height="0.460455" rx="0.230228" transform="matrix(-1 -1.74846e-07 -1.74846e-07 1 65.2249 63.9913)" fill="#A6A6A6" fill-opacity="0.5"/>
<rect width="3.07221" height="2.30227" rx="0.430476" transform="matrix(-1 -1.74846e-07 -1.74846e-07 1 71.3407 61.5356)" fill="#61C3F2"/>
<rect width="2.15055" height="0.460455" rx="0.230228" transform="matrix(-1 -1.74846e-07 -1.74846e-07 1 70.8799 63.9913)" fill="#61C3F2"/>
<rect width="3.07221" height="2.30227" rx="0.430476" transform="matrix(-1 -1.74846e-07 -1.74846e-07 1 76.9957 61.5356)" fill="#61C3F2"/>
<rect width="2.15055" height="0.460455" rx="0.230228" transform="matrix(-1 -1.74846e-07 -1.74846e-07 1 76.5349 63.9913)" fill="#61C3F2"/>
<rect width="3.07221" height="2.30227" rx="0.430476" transform="matrix(-1 -1.74846e-07 -1.74846e-07 1 82.6509 61.5356)" fill="#A6A6A6" fill-opacity="0.5"/>
<rect width="2.15055" height="0.460455" rx="0.230228" transform="matrix(-1 -1.74846e-07 -1.74846e-07 1 82.1901 63.9913)" fill="#A6A6A6" fill-opacity="0.5"/>
<rect width="3.07221" height="2.30227" rx="0.430476" transform="matrix(-1 -1.74846e-07 -1.74846e-07 1 88.3059 61.5356)" fill="#A6A6A6" fill-opacity="0.5"/>
<rect width="2.15055" height="0.460455" rx="0.230228" transform="matrix(-1 -1.74846e-07 -1.74846e-07 1 87.8451 63.9913)" fill="#A6A6A6" fill-opacity="0.5"/>
<rect width="3.07221" height="2.30227" rx="0.430476" transform="matrix(-1 -1.74846e-07 -1.74846e-07 1 93.9609 61.5356)" fill="#61C3F2"/>
<rect width="2.15055" height="0.460455" rx="0.230228" transform="matrix(-1 -1.74846e-07 -1.74846e-07 1 93.5001 63.9913)" fill="#61C3F2"/>
<rect width="3.07221" height="2.30227" rx="0.430476" transform="matrix(-1 -1.74846e-07 -1.74846e-07 1 99.6161 61.5356)" fill="#61C3F2"/>
<rect width="2.15055" height="0.460455" rx="0.230228" transform="matrix(-1 -1.74846e-07 -1.74846e-07 1 99.1552 63.9913)" fill="#61C3F2"/>
<rect width="3.07221" height="2.30227" rx="0.430476" transform="matrix(-1 -1.74846e-07 -1.74846e-07 1 105.271 61.5356)" fill="#A6A6A6" fill-opacity="0.5"/>
<rect width="2.15055" height="0.460455" rx="0.230228" transform="matrix(-1 -1.74846e-07 -1.74846e-07 1 104.81 63.9913)" fill="#A6A6A6" fill-opacity="0.5"/>
<rect width="3.07221" height="2.30227" rx="0.430476" transform="matrix(-1 -1.74846e-07 -1.74846e-07 1 110.926 61.5356)" fill="#A6A6A6" fill-opacity="0.5"/>
<rect width="2.15055" height="0.460455" rx="0.230228" transform="matrix(-1 -1.74846e-07 -1.74846e-07 1 110.465 63.9913)" fill="#A6A6A6" fill-opacity="0.5"/>
<rect width="3.07221" height="2.30227" rx="0.430476" transform="matrix(-1 -1.74846e-07 -1.74846e-07 1 122.236 61.5356)" fill="#A6A6A6" fill-opacity="0.5"/>
<rect width="2.15055" height="0.460455" rx="0.230228" transform="matrix(-1 -1.74846e-07 -1.74846e-07 1 121.776 63.9913)" fill="#A6A6A6" fill-opacity="0.5"/>
<rect width="3.07221" height="2.30227" rx="0.430476" transform="matrix(-1 -1.74846e-07 -1.74846e-07 1 127.891 61.5356)" fill="#61C3F2"/>
<rect width="2.15055" height="0.460455" rx="0.230228" transform="matrix(-1 -1.74846e-07 -1.74846e-07 1 127.431 63.9913)" fill="#61C3F2"/>
<rect width="3.07221" height="2.30227" rx="0.430476" transform="matrix(-1 -1.74846e-07 -1.74846e-07 1 133.546 61.5356)" fill="#61C3F2"/>
<rect width="2.15055" height="0.460455" rx="0.230228" transform="matrix(-1 -1.74846e-07 -1.74846e-07 1 133.086 63.9913)" fill="#61C3F2"/>
<rect width="3.07221" height="2.30227" rx="0.430476" transform="matrix(-1 -1.74846e-07 -1.74846e-07 1 139.202 61.5356)" fill="#A6A6A6" fill-opacity="0.5"/>
<rect width="2.15055" height="0.460455" rx="0.230228" transform="matrix(-1 -1.74846e-07 -1.74846e-07 1 138.741 63.9913)" fill="#A6A6A6" fill-opacity="0.5"/>
<rect width="3.07221" height="2.30227" rx="0.430476" transform="matrix(-1 -1.74846e-07 -1.74846e-07 1 144.857 61.5356)" fill="#A6A6A6" fill-opacity="0.5"/>
<rect width="2.15055" height="0.460455" rx="0.230228" transform="matrix(-1 -1.74846e-07 -1.74846e-07 1 144.396 63.9913)" fill="#A6A6A6" fill-opacity="0.5"/>
<rect width="3.07221" height="2.30227" rx="0.430476" transform="matrix(-1 -1.74846e-07 -1.74846e-07 1 3.47986 68.3261)" fill="#61C3F2"/>
<rect width="2.15055" height="0.460455" rx="0.230228" transform="matrix(-1 -1.74846e-07 -1.74846e-07 1 3.01904 70.7818)" fill="#61C3F2"/>
<rect width="3.07221" height="2.30227" rx="0.430476" transform="matrix(-1 -1.74846e-07 -1.74846e-07 1 9.13489 68.3261)" fill="#61C3F2"/>
<rect width="2.15055" height="0.460455" rx="0.230228" transform="matrix(-1 -1.74846e-07 -1.74846e-07 1 8.67407 70.7818)" fill="#61C3F2"/>
<rect width="3.07221" height="2.30227" rx="0.430476" transform="matrix(-1 -1.74846e-07 -1.74846e-07 1 14.79 68.3261)" fill="#A6A6A6" fill-opacity="0.5"/>
<rect width="2.15055" height="0.460455" rx="0.230228" transform="matrix(-1 -1.74846e-07 -1.74846e-07 1 14.3292 70.7818)" fill="#A6A6A6" fill-opacity="0.5"/>
<rect width="3.07221" height="2.30227" rx="0.430476" transform="matrix(-1 -1.74846e-07 -1.74846e-07 1 20.4451 68.3261)" fill="#A6A6A6" fill-opacity="0.5"/>
<rect width="2.15055" height="0.460455" rx="0.230228" transform="matrix(-1 -1.74846e-07 -1.74846e-07 1 19.9843 70.7818)" fill="#A6A6A6" fill-opacity="0.5"/>
<rect width="3.07221" height="2.30227" rx="0.430476" transform="matrix(-1 -1.74846e-07 -1.74846e-07 1 26.1001 68.3261)" fill="#A6A6A6" fill-opacity="0.5"/>
<rect width="2.15055" height="0.460455" rx="0.230228" transform="matrix(-1 -1.74846e-07 -1.74846e-07 1 25.6393 70.7818)" fill="#A6A6A6" fill-opacity="0.5"/>
<rect width="3.07221" height="2.30227" rx="0.430476" transform="matrix(-1 -1.74846e-07 -1.74846e-07 1 37.4103 68.3261)" fill="#61C3F2"/>
<rect width="2.15055" height="0.460455" rx="0.230228" transform="matrix(-1 -1.74846e-07 -1.74846e-07 1 36.9495 70.7818)" fill="#61C3F2"/>
<rect width="3.07221" height="2.30227" rx="0.430476" transform="matrix(-1 -1.74846e-07 -1.74846e-07 1 43.0653 68.3261)" fill="#61C3F2"/>
<rect width="2.15055" height="0.460455" rx="0.230228" transform="matrix(-1 -1.74846e-07 -1.74846e-07 1 42.6045 70.7818)" fill="#61C3F2"/>
<rect width="3.07221" height="2.30227" rx="0.430476" transform="matrix(-1 -1.74846e-07 -1.74846e-07 1 48.7205 68.3261)" fill="#A6A6A6" fill-opacity="0.5"/>
<rect width="2.15055" height="0.460455" rx="0.230228" transform="matrix(-1 -1.74846e-07 -1.74846e-07 1 48.2596 70.7818)" fill="#A6A6A6" fill-opacity="0.5"/>
<rect width="3.07221" height="2.30227" rx="0.430476" transform="matrix(-1 -1.74846e-07 -1.74846e-07 1 54.3755 68.3261)" fill="#A6A6A6" fill-opacity="0.5"/>
<rect width="2.15055" height="0.460455" rx="0.230228" transform="matrix(-1 -1.74846e-07 -1.74846e-07 1 53.9147 70.7818)" fill="#A6A6A6" fill-opacity="0.5"/>
<rect width="3.07221" height="2.30227" rx="0.430476" transform="matrix(-1 -1.74846e-07 -1.74846e-07 1 60.0305 68.3261)" fill="#61C3F2"/>
<rect width="2.15055" height="0.460455" rx="0.230228" transform="matrix(-1 -1.74846e-07 -1.74846e-07 1 59.5697 70.7818)" fill="#61C3F2"/>
<rect width="3.07221" height="2.30227" rx="0.430476" transform="matrix(-1 -1.74846e-07 -1.74846e-07 1 65.6857 68.3261)" fill="#61C3F2"/>
<rect width="2.15055" height="0.460455" rx="0.230228" transform="matrix(-1 -1.74846e-07 -1.74846e-07 1 65.2249 70.7818)" fill="#61C3F2"/>
<rect width="3.07221" height="2.30227" rx="0.430476" transform="matrix(-1 -1.74846e-07 -1.74846e-07 1 71.3407 68.3261)" fill="#A6A6A6" fill-opacity="0.5"/>
<rect width="2.15055" height="0.460455" rx="0.230228" transform="matrix(-1 -1.74846e-07 -1.74846e-07 1 70.8799 70.7818)" fill="#A6A6A6" fill-opacity="0.5"/>
<rect width="3.07221" height="2.30227" rx="0.430476" transform="matrix(-1 -1.74846e-07 -1.74846e-07 1 76.9957 68.3261)" fill="#A6A6A6" fill-opacity="0.5"/>
<rect width="2.15055" height="0.460455" rx="0.230228" transform="matrix(-1 -1.74846e-07 -1.74846e-07 1 76.5349 70.7818)" fill="#A6A6A6" fill-opacity="0.5"/>
<rect width="3.07221" height="2.30227" rx="0.430476" transform="matrix(-1 -1.74846e-07 -1.74846e-07 1 82.6509 68.3261)" fill="#61C3F2"/>
<rect width="2.15055" height="0.460455" rx="0.230228" transform="matrix(-1 -1.74846e-07 -1.74846e-07 1 82.1901 70.7818)" fill="#61C3F2"/>
<rect width="3.07221" height="2.30227" rx="0.430476" transform="matrix(-1 -1.74846e-07 -1.74846e-07 1 88.3059 68.3261)" fill="#61C3F2"/>
<rect width="2.15055" height="0.460455" rx="0.230228" transform="matrix(-1 -1.74846e-07 -1.74846e-07 1 87.8451 70.7818)" fill="#61C3F2"/>
<rect width="3.07221" height="2.30227" rx="0.430476" transform="matrix(-1 -1.74846e-07 -1.74846e-07 1 93.9609 68.3261)" fill="#A6A6A6" fill-opacity="0.5"/>
<rect width="2.15055" height="0.460455" rx="0.230228" transform="matrix(-1 -1.74846e-07 -1.74846e-07 1 93.5001 70.7818)" fill="#A6A6A6" fill-opacity="0.5"/>
<rect width="3.07221" height="2.30227" rx="0.430476" transform="matrix(-1 -1.74846e-07 -1.74846e-07 1 99.6161 68.3261)" fill="#A6A6A6" fill-opacity="0.5"/>
<rect width="2.15055" height="0.460455" rx="0.230228" transform="matrix(-1 -1.74846e-07 -1.74846e-07 1 99.1552 70.7818)" fill="#A6A6A6" fill-opacity="0.5"/>
<rect width="3.07221" height="2.30227" rx="0.430476" transform="matrix(-1 -1.74846e-07 -1.74846e-07 1 105.271 68.3261)" fill="#61C3F2"/>
<rect width="2.15055" height="0.460455" rx="0.230228" transform="matrix(-1 -1.74846e-07 -1.74846e-07 1 104.81 70.7818)" fill="#61C3F2"/>
<rect width="3.07221" height="2.30227" rx="0.430476" transform="matrix(-1 -1.74846e-07 -1.74846e-07 1 110.926 68.3261)" fill="#61C3F2"/>
<rect width="2.15055" height="0.460455" rx="0.230228" transform="matrix(-1 -1.74846e-07 -1.74846e-07 1 110.465 70.7818)" fill="#61C3F2"/>
<rect width="3.07221" height="2.30227" rx="0.430476" transform="matrix(-1 -1.74846e-07 -1.74846e-07 1 122.236 68.3261)" fill="#A6A6A6" fill-opacity="0.5"/>
<rect width="2.15055" height="0.460455" rx="0.230228" transform="matrix(-1 -1.74846e-07 -1.74846e-07 1 121.776 70.7818)" fill="#A6A6A6" fill-opacity="0.5"/>
<rect width="3.07221" height="2.30227" rx="0.430476" transform="matrix(-1 -1.74846e-07 -1.74846e-07 1 127.891 68.3261)" fill="#A6A6A6" fill-opacity="0.5"/>
<rect width="2.15055" height="0.460455" rx="0.230228" transform="matrix(-1 -1.74846e-07 -1.74846e-07 1 127.431 70.7818)" fill="#A6A6A6" fill-opacity="0.5"/>
<rect width="3.07221" height="2.30227" rx="0.430476" transform="matrix(-1 -1.74846e-07 -1.74846e-07 1 133.546 68.3261)" fill="#A6A6A6" fill-opacity="0.5"/>
<rect width="2.15055" height="0.460455" rx="0.230228" transform="matrix(-1 -1.74846e-07 -1.74846e-07 1 133.086 70.7819)" fill="#A6A6A6" fill-opacity="0.5"/>
<rect width="3.07221" height="2.30227" rx="0.430476" transform="matrix(-1 -1.74846e-07 -1.74846e-07 1 139.202 68.3261)" fill="#61C3F2"/>
<rect width="2.15055" height="0.460455" rx="0.230228" transform="matrix(-1 -1.74846e-07 -1.74846e-07 1 138.741 70.7819)" fill="#61C3F2"/>
<rect width="3.07221" height="2.30227" rx="0.430476" transform="matrix(-1 -1.74846e-07 -1.74846e-07 1 144.857 68.3261)" fill="#61C3F2"/>
<rect width="2.15055" height="0.460455" rx="0.230228" transform="matrix(-1 -1.74846e-07 -1.74846e-07 1 144.396 70.7819)" fill="#61C3F2"/>
<rect width="3.07221" height="2.30227" rx="0.430476" transform="matrix(-1 -1.74846e-07 -1.74846e-07 1 3.47986 75.1166)" fill="#A6A6A6" fill-opacity="0.5"/>
<rect width="2.15055" height="0.460455" rx="0.230228" transform="matrix(-1 -1.74846e-07 -1.74846e-07 1 3.01904 77.5723)" fill="#A6A6A6" fill-opacity="0.5"/>
<rect width="3.07221" height="2.30227" rx="0.430476" transform="matrix(-1 -1.74846e-07 -1.74846e-07 1 9.13489 75.1166)" fill="#A6A6A6" fill-opacity="0.5"/>
<rect width="2.15055" height="0.460455" rx="0.230228" transform="matrix(-1 -1.74846e-07 -1.74846e-07 1 8.67407 77.5723)" fill="#A6A6A6" fill-opacity="0.5"/>
<rect width="3.07221" height="2.30227" rx="0.430476" transform="matrix(-1 -1.74846e-07 -1.74846e-07 1 14.79 75.1166)" fill="#61C3F2"/>
<rect width="2.15055" height="0.460455" rx="0.230228" transform="matrix(-1 -1.74846e-07 -1.74846e-07 1 14.3292 77.5723)" fill="#61C3F2"/>
<rect width="3.07221" height="2.30227" rx="0.430476" transform="matrix(-1 -1.74846e-07 -1.74846e-07 1 20.4451 75.1166)" fill="#61C3F2"/>
<rect width="2.15055" height="0.460455" rx="0.230228" transform="matrix(-1 -1.74846e-07 -1.74846e-07 1 19.9843 77.5723)" fill="#61C3F2"/>
<rect width="3.07221" height="2.30227" rx="0.430476" transform="matrix(-1 -1.74846e-07 -1.74846e-07 1 26.1001 75.1166)" fill="#A6A6A6" fill-opacity="0.5"/>
<rect width="2.15055" height="0.460455" rx="0.230228" transform="matrix(-1 -1.74846e-07 -1.74846e-07 1 25.6393 77.5723)" fill="#A6A6A6" fill-opacity="0.5"/>
<rect width="3.07221" height="2.30227" rx="0.430476" transform="matrix(-1 -1.74846e-07 -1.74846e-07 1 37.4103 75.1166)" fill="#A6A6A6" fill-opacity="0.5"/>
<rect width="2.15055" height="0.460455" rx="0.230228" transform="matrix(-1 -1.74846e-07 -1.74846e-07 1 36.9495 77.5723)" fill="#A6A6A6" fill-opacity="0.5"/>
<rect width="3.07221" height="2.30227" rx="0.430476" transform="matrix(-1 -1.74846e-07 -1.74846e-07 1 43.0653 75.1166)" fill="#A6A6A6" fill-opacity="0.5"/>
<rect width="2.15055" height="0.460455" rx="0.230228" transform="matrix(-1 -1.74846e-07 -1.74846e-07 1 42.6045 77.5723)" fill="#A6A6A6" fill-opacity="0.5"/>
<rect width="3.07221" height="2.30227" rx="0.430476" transform="matrix(-1 -1.74846e-07 -1.74846e-07 1 48.7205 75.1166)" fill="#61C3F2"/>
<rect width="2.15055" height="0.460455" rx="0.230228" transform="matrix(-1 -1.74846e-07 -1.74846e-07 1 48.2596 77.5723)" fill="#61C3F2"/>
<rect width="3.07221" height="2.30227" rx="0.430476" transform="matrix(-1 -1.74846e-07 -1.74846e-07 1 54.3755 75.1166)" fill="#61C3F2"/>
<rect width="2.15055" height="0.460455" rx="0.230228" transform="matrix(-1 -1.74846e-07 -1.74846e-07 1 53.9147 77.5723)" fill="#61C3F2"/>
<rect width="3.07221" height="2.30227" rx="0.430476" transform="matrix(-1 -1.74846e-07 -1.74846e-07 1 60.0305 75.1166)" fill="#A6A6A6" fill-opacity="0.5"/>
<rect width="2.15055" height="0.460455" rx="0.230228" transform="matrix(-1 -1.74846e-07 -1.74846e-07 1 59.5697 77.5724)" fill="#A6A6A6" fill-opacity="0.5"/>
<rect width="3.07221" height="2.30227" rx="0.430476" transform="matrix(-1 -1.74846e-07 -1.74846e-07 1 65.6857 75.1166)" fill="#A6A6A6" fill-opacity="0.5"/>
<rect width="2.15055" height="0.460455" rx="0.230228" transform="matrix(-1 -1.74846e-07 -1.74846e-07 1 65.2249 77.5724)" fill="#A6A6A6" fill-opacity="0.5"/>
<rect width="3.07221" height="2.30227" rx="0.430476" transform="matrix(-1 -1.74846e-07 -1.74846e-07 1 71.3407 75.1166)" fill="#61C3F2"/>
<rect width="2.15055" height="0.460455" rx="0.230228" transform="matrix(-1 -1.74846e-07 -1.74846e-07 1 70.8799 77.5724)" fill="#61C3F2"/>
<rect width="3.07221" height="2.30227" rx="0.430476" transform="matrix(-1 -1.74846e-07 -1.74846e-07 1 76.9957 75.1166)" fill="#61C3F2"/>
<rect width="2.15055" height="0.460455" rx="0.230228" transform="matrix(-1 -1.74846e-07 -1.74846e-07 1 76.5349 77.5724)" fill="#61C3F2"/>
<rect width="3.07221" height="2.30227" rx="0.430476" transform="matrix(-1 -1.74846e-07 -1.74846e-07 1 82.6509 75.1166)" fill="#A6A6A6" fill-opacity="0.5"/>
<rect width="2.15055" height="0.460455" rx="0.230228" transform="matrix(-1 -1.74846e-07 -1.74846e-07 1 82.1901 77.5724)" fill="#A6A6A6" fill-opacity="0.5"/>
<rect width="3.07221" height="2.30227" rx="0.430476" transform="matrix(-1 -1.74846e-07 -1.74846e-07 1 88.3059 75.1166)" fill="#A6A6A6" fill-opacity="0.5"/>
<rect width="2.15055" height="0.460455" rx="0.230228" transform="matrix(-1 -1.74846e-07 -1.74846e-07 1 87.8451 77.5724)" fill="#A6A6A6" fill-opacity="0.5"/>
<rect width="3.07221" height="2.30227" rx="0.430476" transform="matrix(-1 -1.74846e-07 -1.74846e-07 1 93.9609 75.1166)" fill="#61C3F2"/>
<rect width="2.15055" height="0.460455" rx="0.230228" transform="matrix(-1 -1.74846e-07 -1.74846e-07 1 93.5001 77.5724)" fill="#61C3F2"/>
<rect width="3.07221" height="2.30227" rx="0.430476" transform="matrix(-1 -1.74846e-07 -1.74846e-07 1 99.6161 75.1166)" fill="#61C3F2"/>
<rect width="2.15055" height="0.460455" rx="0.230228" transform="matrix(-1 -1.74846e-07 -1.74846e-07 1 99.1552 77.5724)" fill="#61C3F2"/>
<rect width="3.07221" height="2.30227" rx="0.430476" transform="matrix(-1 -1.74846e-07 -1.74846e-07 1 105.271 75.1166)" fill="#A6A6A6" fill-opacity="0.5"/>
<rect width="2.15055" height="0.460455" rx="0.230228" transform="matrix(-1 -1.74846e-07 -1.74846e-07 1 104.81 77.5724)" fill="#A6A6A6" fill-opacity="0.5"/>
<rect width="3.07221" height="2.30227" rx="0.430476" transform="matrix(-1 -1.74846e-07 -1.74846e-07 1 110.926 75.1166)" fill="#A6A6A6" fill-opacity="0.5"/>
<rect width="2.15055" height="0.460455" rx="0.230228" transform="matrix(-1 -1.74846e-07 -1.74846e-07 1 110.465 77.5724)" fill="#A6A6A6" fill-opacity="0.5"/>
<rect width="3.07221" height="2.30227" rx="0.430476" transform="matrix(-1 -1.74846e-07 -1.74846e-07 1 122.236 75.1166)" fill="#A6A6A6" fill-opacity="0.5"/>
<rect width="2.15055" height="0.460455" rx="0.230228" transform="matrix(-1 -1.74846e-07 -1.74846e-07 1 121.776 77.5724)" fill="#A6A6A6" fill-opacity="0.5"/>
<rect width="3.07221" height="2.30227" rx="0.430476" transform="matrix(-1 -1.74846e-07 -1.74846e-07 1 127.891 75.1166)" fill="#61C3F2"/>
<rect width="2.15055" height="0.460455" rx="0.230228" transform="matrix(-1 -1.74846e-07 -1.74846e-07 1 127.431 77.5724)" fill="#61C3F2"/>
<rect width="3.07221" height="2.30227" rx="0.430476" transform="matrix(-1 -1.74846e-07 -1.74846e-07 1 133.546 75.1166)" fill="#61C3F2"/>
<rect width="2.15055" height="0.460455" rx="0.230228" transform="matrix(-1 -1.74846e-07 -1.74846e-07 1 133.086 77.5724)" fill="#61C3F2"/>
<rect width="3.07221" height="2.30227" rx="0.430476" transform="matrix(-1 -1.74846e-07 -1.74846e-07 1 139.202 75.1166)" fill="#A6A6A6" fill-opacity="0.5"/>
<rect width="2.15055" height="0.460455" rx="0.230228" transform="matrix(-1 -1.74846e-07 -1.74846e-07 1 138.741 77.5724)" fill="#A6A6A6" fill-opacity="0.5"/>
<rect width="3.07221" height="2.30227" rx="0.430476" transform="matrix(-1 -1.74846e-07 -1.74846e-07 1 144.857 75.1166)" fill="#A6A6A6" fill-opacity="0.5"/>
<rect width="2.15055" height="0.460455" rx="0.230228" transform="matrix(-1 -1.74846e-07 -1.74846e-07 1 144.396 77.5724)" fill="#A6A6A6" fill-opacity="0.5"/>
<rect width="3.07221" height="2.30227" rx="0.430476" transform="matrix(-1 -1.74846e-07 -1.74846e-07 1 3.47986 81.9071)" fill="#61C3F2"/>
<rect width="2.15055" height="0.460455" rx="0.230228" transform="matrix(-1 -1.74846e-07 -1.74846e-07 1 3.01904 84.3629)" fill="#61C3F2"/>
<rect width="3.07221" height="2.30227" rx="0.430476" transform="matrix(-1 -1.74846e-07 -1.74846e-07 1 9.13489 81.9071)" fill="#61C3F2"/>
<rect width="2.15055" height="0.460455" rx="0.230228" transform="matrix(-1 -1.74846e-07 -1.74846e-07 1 8.67407 84.3629)" fill="#61C3F2"/>
<rect width="3.07221" height="2.30227" rx="0.430476" transform="matrix(-1 -1.74846e-07 -1.74846e-07 1 14.79 81.9071)" fill="#A6A6A6" fill-opacity="0.5"/>
<rect width="2.15055" height="0.460455" rx="0.230228" transform="matrix(-1 -1.74846e-07 -1.74846e-07 1 14.3292 84.3629)" fill="#A6A6A6" fill-opacity="0.5"/>
<rect width="3.07221" height="2.30227" rx="0.430476" transform="matrix(-1 -1.74846e-07 -1.74846e-07 1 20.4451 81.9071)" fill="#A6A6A6" fill-opacity="0.5"/>
<rect width="2.15055" height="0.460455" rx="0.230228" transform="matrix(-1 -1.74846e-07 -1.74846e-07 1 19.9843 84.3629)" fill="#A6A6A6" fill-opacity="0.5"/>
<rect width="3.07221" height="2.30227" rx="0.430476" transform="matrix(-1 -1.74846e-07 -1.74846e-07 1 26.1001 81.9071)" fill="#A6A6A6" fill-opacity="0.5"/>
<rect width="2.15055" height="0.460455" rx="0.230228" transform="matrix(-1 -1.74846e-07 -1.74846e-07 1 25.6393 84.3629)" fill="#A6A6A6" fill-opacity="0.5"/>
<rect width="3.07221" height="2.30227" rx="0.430476" transform="matrix(-1 -1.74846e-07 -1.74846e-07 1 37.4103 81.9071)" fill="#61C3F2"/>
<rect width="2.15055" height="0.460455" rx="0.230228" transform="matrix(-1 -1.74846e-07 -1.74846e-07 1 36.9495 84.3629)" fill="#61C3F2"/>
<rect width="3.07221" height="2.30227" rx="0.430476" transform="matrix(-1 -1.74846e-07 -1.74846e-07 1 43.0653 81.9071)" fill="#61C3F2"/>
<rect width="2.15055" height="0.460455" rx="0.230228" transform="matrix(-1 -1.74846e-07 -1.74846e-07 1 42.6045 84.3629)" fill="#61C3F2"/>
<rect width="3.07221" height="2.30227" rx="0.430476" transform="matrix(-1 -1.74846e-07 -1.74846e-07 1 48.7205 81.9071)" fill="#A6A6A6" fill-opacity="0.5"/>
<rect width="2.15055" height="0.460455" rx="0.230228" transform="matrix(-1 -1.74846e-07 -1.74846e-07 1 48.2596 84.3629)" fill="#A6A6A6" fill-opacity="0.5"/>
<rect width="3.07221" height="2.30227" rx="0.430476" transform="matrix(-1 -1.74846e-07 -1.74846e-07 1 54.3755 81.9071)" fill="#A6A6A6" fill-opacity="0.5"/>
<rect width="2.15055" height="0.460455" rx="0.230228" transform="matrix(-1 -1.74846e-07 -1.74846e-07 1 53.9147 84.3629)" fill="#A6A6A6" fill-opacity="0.5"/>
<rect width="3.07221" height="2.30227" rx="0.430476" transform="matrix(-1 -1.74846e-07 -1.74846e-07 1 60.0305 81.9071)" fill="#61C3F2"/>
<rect width="2.15055" height="0.460455" rx="0.230228" transform="matrix(-1 -1.74846e-07 -1.74846e-07 1 59.5697 84.3629)" fill="#61C3F2"/>
<rect width="3.07221" height="2.30227" rx="0.430476" transform="matrix(-1 -1.74846e-07 -1.74846e-07 1 65.6857 81.9071)" fill="#61C3F2"/>
<rect width="2.15055" height="0.460455" rx="0.230228" transform="matrix(-1 -1.74846e-07 -1.74846e-07 1 65.2249 84.3629)" fill="#61C3F2"/>
<rect width="3.07221" height="2.30227" rx="0.430476" transform="matrix(-1 -1.74846e-07 -1.74846e-07 1 71.3407 81.9071)" fill="#A6A6A6" fill-opacity="0.5"/>
<rect width="2.15055" height="0.460455" rx="0.230228" transform="matrix(-1 -1.74846e-07 -1.74846e-07 1 70.8799 84.3629)" fill="#A6A6A6" fill-opacity="0.5"/>
<rect width="3.07221" height="2.30227" rx="0.430476" transform="matrix(-1 -1.74846e-07 -1.74846e-07 1 76.9957 81.9071)" fill="#A6A6A6" fill-opacity="0.5"/>
<rect width="2.15055" height="0.460455" rx="0.230228" transform="matrix(-1 -1.74846e-07 -1.74846e-07 1 76.5349 84.3629)" fill="#A6A6A6" fill-opacity="0.5"/>
<rect width="3.07221" height="2.30227" rx="0.430476" transform="matrix(-1 -1.74846e-07 -1.74846e-07 1 82.6509 81.9071)" fill="#61C3F2"/>
<rect width="2.15055" height="0.460455" rx="0.230228" transform="matrix(-1 -1.74846e-07 -1.74846e-07 1 82.1901 84.3629)" fill="#61C3F2"/>
<rect width="3.07221" height="2.30227" rx="0.430476" transform="matrix(-1 -1.74846e-07 -1.74846e-07 1 88.3059 81.9071)" fill="#61C3F2"/>
<rect width="2.15055" height="0.460455" rx="0.230228" transform="matrix(-1 -1.74846e-07 -1.74846e-07 1 87.8451 84.3629)" fill="#61C3F2"/>
<rect width="3.07221" height="2.30227" rx="0.430476" transform="matrix(-1 -1.74846e-07 -1.74846e-07 1 93.9609 81.9071)" fill="#A6A6A6" fill-opacity="0.5"/>
<rect width="2.15055" height="0.460455" rx="0.230228" transform="matrix(-1 -1.74846e-07 -1.74846e-07 1 93.5001 84.3629)" fill="#A6A6A6" fill-opacity="0.5"/>
<rect width="3.07221" height="2.30227" rx="0.430476" transform="matrix(-1 -1.74846e-07 -1.74846e-07 1 99.6161 81.9071)" fill="#A6A6A6" fill-opacity="0.5"/>
<rect width="2.15055" height="0.460455" rx="0.230228" transform="matrix(-1 -1.74846e-07 -1.74846e-07 1 99.1552 84.3629)" fill="#A6A6A6" fill-opacity="0.5"/>
<rect width="3.07221" height="2.30227" rx="0.430476" transform="matrix(-1 -1.74846e-07 -1.74846e-07 1 105.271 81.9071)" fill="#61C3F2"/>
<rect width="2.15055" height="0.460455" rx="0.230228" transform="matrix(-1 -1.74846e-07 -1.74846e-07 1 104.81 84.3629)" fill="#61C3F2"/>
<rect width="3.07221" height="2.30227" rx="0.430476" transform="matrix(-1 -1.74846e-07 -1.74846e-07 1 110.926 81.9071)" fill="#61C3F2"/>
<rect width="2.15055" height="0.460455" rx="0.230228" transform="matrix(-1 -1.74846e-07 -1.74846e-07 1 110.465 84.3629)" fill="#61C3F2"/>
<rect width="3.07221" height="2.30227" rx="0.430476" transform="matrix(-1 -1.74846e-07 -1.74846e-07 1 122.236 81.9071)" fill="#A6A6A6" fill-opacity="0.5"/>
<rect width="2.15055" height="0.460455" rx="0.230228" transform="matrix(-1 -1.74846e-07 -1.74846e-07 1 121.776 84.3629)" fill="#A6A6A6" fill-opacity="0.5"/>
<rect width="3.07221" height="2.30227" rx="0.430476" transform="matrix(-1 -1.74846e-07 -1.74846e-07 1 127.891 81.9071)" fill="#A6A6A6" fill-opacity="0.5"/>
<rect width="2.15055" height="0.460455" rx="0.230228" transform="matrix(-1 -1.74846e-07 -1.74846e-07 1 127.431 84.3629)" fill="#A6A6A6" fill-opacity="0.5"/>
<rect width="3.07221" height="2.30227" rx="0.430476" transform="matrix(-1 -1.74846e-07 -1.74846e-07 1 133.546 81.9071)" fill="#A6A6A6" fill-opacity="0.5"/>
<rect width="2.15055" height="0.460455" rx="0.230228" transform="matrix(-1 -1.74846e-07 -1.74846e-07 1 133.086 84.3629)" fill="#A6A6A6" fill-opacity="0.5"/>
<rect width="3.07221" height="2.30227" rx="0.430476" transform="matrix(-1 -1.74846e-07 -1.74846e-07 1 139.202 81.9071)" fill="#61C3F2"/>
<rect width="2.15055" height="0.460455" rx="0.230228" transform="matrix(-1 -1.74846e-07 -1.74846e-07 1 138.741 84.3629)" fill="#61C3F2"/>
<rect width="3.07221" height="2.30227" rx="0.430476" transform="matrix(-1 -1.74846e-07 -1.74846e-07 1 144.857 81.9071)" fill="#61C3F2"/>
<rect width="2.15055" height="0.460455" rx="0.230228" transform="matrix(-1 -1.74846e-07 -1.74846e-07 1 144.396 84.3629)" fill="#61C3F2"/>
<rect width="3.07221" height="2.30227" rx="0.430476" transform="matrix(-1 -1.74846e-07 -1.74846e-07 1 9.13489 88.6976)" fill="#A6A6A6" fill-opacity="0.5"/>
<rect width="2.15055" height="0.460455" rx="0.230228" transform="matrix(-1 -1.74846e-07 -1.74846e-07 1 8.67407 91.1534)" fill="#A6A6A6" fill-opacity="0.5"/>
<rect width="3.07221" height="2.30227" rx="0.430476" transform="matrix(-1 -1.74846e-07 -1.74846e-07 1 14.79 88.6976)" fill="#4FD2CF"/>
<rect width="2.15055" height="0.460455" rx="0.230228" transform="matrix(-1 -1.74846e-07 -1.74846e-07 1 14.3292 91.1534)" fill="#4FD2CF"/>
<rect width="3.07221" height="2.30227" rx="0.430476" transform="matrix(-1 -1.74846e-07 -1.74846e-07 1 20.4451 88.6976)" fill="#4FD2CF"/>
<rect width="2.15055" height="0.460455" rx="0.230228" transform="matrix(-1 -1.74846e-07 -1.74846e-07 1 19.9843 91.1534)" fill="#4FD2CF"/>
<rect width="3.07221" height="2.30227" rx="0.430476" transform="matrix(-1 -1.74846e-07 -1.74846e-07 1 43.0653 88.6976)" fill="#61C3F2"/>
<rect width="2.15055" height="0.460455" rx="0.230228" transform="matrix(-1 -1.74846e-07 -1.74846e-07 1 42.6045 91.1534)" fill="#61C3F2"/>
<rect width="3.07221" height="2.30227" rx="0.430476" transform="matrix(-1 -1.74846e-07 -1.74846e-07 1 48.7205 88.6976)" fill="#A6A6A6" fill-opacity="0.5"/>
<rect width="2.15055" height="0.460455" rx="0.230228" transform="matrix(-1 -1.74846e-07 -1.74846e-07 1 48.2596 91.1534)" fill="#A6A6A6" fill-opacity="0.5"/>
<rect width="3.07221" height="2.30227" rx="0.430476" transform="matrix(-1 -1.74846e-07 -1.74846e-07 1 54.3755 88.6976)" fill="#A6A6A6" fill-opacity="0.5"/>
<rect width="2.15055" height="0.460455" rx="0.230228" transform="matrix(-1 -1.74846e-07 -1.74846e-07 1 53.9147 91.1534)" fill="#A6A6A6" fill-opacity="0.5"/>
<rect width="3.07221" height="2.30227" rx="0.430476" transform="matrix(-1 -1.74846e-07 -1.74846e-07 1 60.0305 88.6976)" fill="#61C3F2"/>
<rect width="2.15055" height="0.460455" rx="0.230228" transform="matrix(-1 -1.74846e-07 -1.74846e-07 1 59.5697 91.1534)" fill="#61C3F2"/>
<rect width="3.07221" height="2.30227" rx="0.430476" transform="matrix(-1 -1.74846e-07 -1.74846e-07 1 88.3059 88.6976)" fill="#61C3F2"/>
<rect width="2.15055" height="0.460455" rx="0.230228" transform="matrix(-1 -1.74846e-07 -1.74846e-07 1 87.8451 91.1534)" fill="#61C3F2"/>
<rect width="3.07221" height="2.30227" rx="0.430476" transform="matrix(-1 -1.74846e-07 -1.74846e-07 1 93.9609 88.6976)" fill="#A6A6A6" fill-opacity="0.5"/>
<rect width="2.15055" height="0.460455" rx="0.230228" transform="matrix(-1 -1.74846e-07 -1.74846e-07 1 93.5001 91.1534)" fill="#A6A6A6" fill-opacity="0.5"/>
<rect width="3.07221" height="2.30227" rx="0.430476" transform="matrix(-1 -1.74846e-07 -1.74846e-07 1 99.6161 88.6976)" fill="#A6A6A6" fill-opacity="0.5"/>
<rect width="2.15055" height="0.460455" rx="0.230228" transform="matrix(-1 -1.74846e-07 -1.74846e-07 1 99.1552 91.1534)" fill="#A6A6A6" fill-opacity="0.5"/>
<rect width="3.07221" height="2.30227" rx="0.430476" transform="matrix(-1 -1.74846e-07 -1.74846e-07 1 105.271 88.6976)" fill="#61C3F2"/>
<rect width="2.15055" height="0.460455" rx="0.230228" transform="matrix(-1 -1.74846e-07 -1.74846e-07 1 104.81 91.1534)" fill="#61C3F2"/>
<rect width="3.07221" height="2.30227" rx="0.430476" transform="matrix(-1 -1.74846e-07 -1.74846e-07 1 127.891 88.6976)" fill="#4FD2CF"/>
<rect width="2.15055" height="0.460455" rx="0.230228" transform="matrix(-1 -1.74846e-07 -1.74846e-07 1 127.431 91.1534)" fill="#4FD2CF"/>
<rect width="3.07221" height="2.30227" rx="0.430476" transform="matrix(-1 -1.74846e-07 -1.74846e-07 1 133.546 88.6976)" fill="#4FD2CF"/>
<rect width="2.15055" height="0.460455" rx="0.230228" transform="matrix(-1 -1.74846e-07 -1.74846e-07 1 133.086 91.1534)" fill="#4FD2CF"/>
<rect width="3.07221" height="2.30227" rx="0.430476" transform="matrix(-1 -1.74846e-07 -1.74846e-07 1 139.202 88.6976)" fill="#A6A6A6" fill-opacity="0.5"/>
<rect width="2.15055" height="0.460455" rx="0.230228" transform="matrix(-1 -1.74846e-07 -1.74846e-07 1 138.741 91.1534)" fill="#A6A6A6" fill-opacity="0.5"/>
</svg>
